<?xml version="1.0" encoding="UTF-8" standalone="no"?>
<!DOCTYPE svg PUBLIC "-//W3C//DTD SVG 1.1//EN" "http://www.w3.org/Graphics/SVG/1.1/DTD/svg11.dtd">
<svg width="100%" height="100%" viewBox="0 0 1280 1251" version="1.1" xmlns="http://www.w3.org/2000/svg" xmlns:xlink="http://www.w3.org/1999/xlink" xml:space="preserve" xmlns:serif="http://www.serif.com/" style="fill-rule:evenodd;clip-rule:evenodd;stroke-linejoin:round;stroke-miterlimit:2;">
    <g transform="matrix(1,0,0,1,-3300,-1472)">
        <g id="Logo_Icoon_Wit" transform="matrix(1,0,0,1,-480,-3673.28)">
            <rect x="3780" y="5146.26" width="1280" height="1249.91" style="fill:none;"/>
            <clipPath id="_clip1">
                <rect x="3780" y="5146.26" width="1280" height="1249.91"/>
            </clipPath>
            <g clip-path="url(#_clip1)">
                <g transform="matrix(7.57231,0,0,7.57231,-41654.5,-14382.5)">
                    <path d="M6017.26,2704.48C6017.26,2701.66 6017.56,2698.92 6018.13,2696.28C6024.65,2699.44 6031.96,2701.21 6039.68,2701.21C6048.36,2701.21 6056.52,2698.97 6063.62,2695.03C6063.07,2697.99 6062.77,2701.03 6062.77,2704.15C6062.77,2717.54 6068.12,2729.7 6076.78,2738.64C6070.92,2742.07 6064.12,2744.07 6056.86,2744.07C6035.02,2744.07 6017.26,2726.31 6017.26,2704.48ZM6151.95,2704.15C6151.95,2725.98 6134.18,2743.74 6112.35,2743.74C6105.24,2743.74 6098.59,2741.84 6092.82,2738.55C6101.25,2729.66 6106.44,2717.66 6106.44,2704.48C6106.44,2701.23 6106.11,2698.06 6105.52,2694.99C6112.63,2698.95 6120.82,2701.21 6129.53,2701.21C6137.27,2701.21 6144.61,2699.42 6151.14,2696.24C6151.67,2698.8 6151.95,2701.44 6151.95,2704.15ZM6084.78,2732.51C6077.37,2725.32 6072.75,2715.27 6072.75,2704.15C6072.75,2693.2 6077.22,2683.28 6084.42,2676.11C6091.83,2683.31 6096.45,2693.36 6096.45,2704.48C6096.45,2715.42 6091.99,2725.34 6084.78,2732.51ZM6094.03,2669.08C6099.52,2666.2 6105.73,2664.55 6112.35,2664.55C6127.91,2664.55 6141.37,2673.61 6147.85,2686.7C6142.36,2689.58 6136.13,2691.23 6129.53,2691.23C6113.95,2691.23 6100.49,2682.18 6094.03,2669.08ZM6075.05,2669.35C6068.53,2682.3 6055.15,2691.23 6039.68,2691.23C6033.12,2691.23 6026.94,2689.6 6021.49,2686.77C6028.01,2673.81 6041.4,2664.88 6056.86,2664.88C6063.42,2664.88 6069.59,2666.51 6075.05,2669.35ZM6000.09,2651.64C6000.09,2631.23 6015.59,2614.39 6035.44,2612.27C6035.17,2614.34 6035.02,2616.46 6035.02,2618.6C6035.02,2633.1 6041.28,2646.16 6051.22,2655.23C6034.77,2657.1 6020.74,2667.04 6013.2,2680.99C6005.17,2673.74 6000.09,2663.28 6000.09,2651.64ZM6118.29,2654.94C6128.05,2645.88 6134.18,2632.95 6134.18,2618.6C6134.18,2616.46 6134.03,2614.34 6133.77,2612.27C6153.61,2614.39 6169.12,2631.23 6169.12,2651.64C6169.12,2663.23 6164.08,2673.64 6156.11,2680.89C6148.65,2666.91 6134.69,2656.91 6118.29,2654.94ZM6045.52,2612.51C6064.59,2615.35 6079.28,2631.79 6079.28,2651.64C6079.28,2653.71 6079.07,2655.73 6078.76,2657.72C6059.69,2654.88 6045.01,2638.45 6045.01,2618.6C6045.01,2616.53 6045.21,2614.5 6045.52,2612.51ZM6124.2,2618.6C6124.2,2638.45 6109.51,2654.88 6090.44,2657.72C6090.13,2655.73 6089.93,2653.71 6089.93,2651.64C6089.93,2631.79 6104.61,2615.35 6123.68,2612.52C6123.99,2614.5 6124.2,2616.53 6124.2,2618.6ZM6084.6,2579.01C6100.83,2579.01 6114.78,2588.82 6120.9,2602.82C6104.79,2605.66 6091.34,2616.29 6084.6,2630.68C6077.87,2616.29 6064.41,2605.66 6048.31,2602.82C6054.42,2588.82 6068.38,2579.01 6084.6,2579.01Z" style="fill:white;"/>
                </g>
            </g>
        </g>
    </g>
</svg>
