<?xml version="1.0" encoding="UTF-8" standalone="no"?>
<!DOCTYPE svg PUBLIC "-//W3C//DTD SVG 1.1//EN" "http://www.w3.org/Graphics/SVG/1.1/DTD/svg11.dtd">
<svg width="100%" height="100%" viewBox="0 0 1280 116" version="1.1" xmlns="http://www.w3.org/2000/svg" xmlns:xlink="http://www.w3.org/1999/xlink" xml:space="preserve" xmlns:serif="http://www.serif.com/" style="fill-rule:evenodd;clip-rule:evenodd;stroke-linejoin:round;stroke-miterlimit:2;">
    <g transform="matrix(1,0,0,1,-4970,-8)">
        <g id="Logo_Wordmark_Kleur" transform="matrix(1,0,0,1,-2079.8,-360.956)">
            <rect x="7049.8" y="369.271" width="1280" height="115.289" style="fill:none;"/>
            <clipPath id="_clip1">
                <rect x="7049.8" y="369.271" width="1280" height="115.289"/>
            </clipPath>
            <g clip-path="url(#_clip1)">
                <g transform="matrix(1.01555,0,0,1.01555,5705.14,2085.9)">
                    <g transform="matrix(0.570688,0,0,0.570688,813.267,-2468.63)">
                        <g transform="matrix(7.10877,-3.31892,-3.31892,-7.10877,1647.51,1431.58)">
                            <path d="M-1.24,-0.502C-0.771,-0.179 -0.262,0.081 0.271,0.272L-1.24,5.112C-2.365,4.732 -3.434,4.179 -4.4,3.472L-1.24,-0.502Z" style="fill:rgb(95,187,70);fill-rule:nonzero;"/>
                        </g>
                        <g transform="matrix(3.96094,6.77206,6.77206,-3.96094,1702.51,1394.59)">
                            <path d="M2.86,-1.147C3.327,-0.82 3.83,-0.556 4.359,-0.362L2.86,4.482C1.732,4.097 0.66,3.539 -0.308,2.819L2.86,-1.147Z" style="fill:rgb(229,183,51);fill-rule:nonzero;"/>
                        </g>
                        <g transform="matrix(-7.02113,3.50051,3.50051,7.02113,1747.83,1462.36)">
                            <path d="M-4.251,-2.868L0.823,-2.868C0.855,-2.319 0.957,-1.767 1.133,-1.229L-3.601,0.599C-4.002,-0.539 -4.214,-1.708 -4.251,-2.868" style="fill:rgb(197,33,47);fill-rule:nonzero;"/>
                        </g>
                        <g transform="matrix(7.02113,-3.50051,-3.50051,-7.02113,1739.8,1444.04)">
                            <path d="M-0.948,1.055L4.126,1.055C4.09,2.241 3.871,3.411 3.484,4.522L-1.251,2.705C-1.081,2.171 -0.977,1.617 -0.948,1.055" style="fill:rgb(75,159,69);fill-rule:nonzero;"/>
                        </g>
                        <g transform="matrix(7.84537,0,0,7.84537,1633.28,1481.39)">
                            <path d="M0,-2.054C0,-2.157 0.003,-2.258 0.008,-2.36L-5.045,-2.812C-5.062,-2.562 -5.071,-2.309 -5.071,-2.054C-5.071,-1.084 -4.95,-0.143 -4.728,0.758L0.153,-0.643C0.054,-1.098 0,-1.571 0,-2.054" style="fill:rgb(66,127,68);fill-rule:nonzero;"/>
                        </g>
                        <g transform="matrix(-7.58905,1.98903,1.98903,7.58905,1751.64,1537.34)">
                            <path d="M2.075,-5.746C2.534,-5.415 3.034,-5.143 3.561,-4.938L2.075,-0.082C0.948,-0.48 -0.112,-1.05 -1.066,-1.767L2.075,-5.746Z" style="fill:rgb(249,196,22);fill-rule:nonzero;"/>
                        </g>
                        <g transform="matrix(7.84537,0,0,7.84537,1736.13,1481.61)">
                            <path d="M0,-2.082C0,-1.604 -0.052,-1.138 -0.15,-0.688L4.729,0.714C4.951,-0.183 5.07,-1.118 5.07,-2.082C5.07,-2.321 5.062,-2.56 5.047,-2.796L-0.006,-2.317C-0.002,-2.239 0,-2.161 0,-2.082" style="fill:rgb(239,65,44);fill-rule:nonzero;"/>
                        </g>
                        <g transform="matrix(-6.24667,4.74648,4.74648,6.24667,1639,1543.66)">
                            <path d="M-4.142,-4.064L0.931,-4.064C0.892,-2.874 0.672,-1.692 0.276,-0.565L-4.458,-2.387C-4.28,-2.93 -4.175,-3.494 -4.142,-4.064" style="fill:rgb(249,159,39);fill-rule:nonzero;"/>
                        </g>
                        <g transform="matrix(5.43044,-5.66217,-5.66217,-5.43044,1639.41,1439.51)">
                            <path d="M-2.108,-1.052C-1.633,-0.721 -1.125,-0.464 -0.598,-0.273L-2.108,4.568C-3.226,4.191 -4.298,3.638 -5.281,2.913L-2.108,-1.052Z" style="fill:rgb(26,150,212);fill-rule:nonzero;"/>
                        </g>
                        <g transform="matrix(-4.12167,-6.67546,-6.67546,4.12167,1715.63,1511.85)">
                            <path d="M-4.496,0.496L0.573,0.496C0.596,1.051 0.687,1.608 0.854,2.152L-3.887,3.973C-4.272,2.836 -4.473,1.664 -4.496,0.496" style="fill:rgb(162,28,68);fill-rule:nonzero;"/>
                        </g>
                        <g transform="matrix(-6.30732,4.66557,4.66557,6.30732,1773.45,1504)">
                            <path d="M2.415,-5.314C2.867,-5.001 3.35,-4.75 3.854,-4.561L2.415,0.306C1.323,-0.064 0.281,-0.597 -0.672,-1.288L2.415,-5.314Z" style="fill:rgb(40,189,226);fill-rule:nonzero;"/>
                        </g>
                        <g transform="matrix(7.84537,0,0,7.84537,1692.12,1556.49)">
                            <path d="M0,-5.14C-0.309,-5.095 -0.625,-5.071 -0.945,-5.071C-1.205,-5.071 -1.459,-5.086 -1.709,-5.116L-2.648,-0.125C-2.093,-0.043 -1.525,0 -0.945,0C-0.305,0 0.325,-0.054 0.938,-0.155L0,-5.14Z" style="fill:rgb(243,106,44);fill-rule:nonzero;"/>
                        </g>
                        <g transform="matrix(6.18944,4.82085,4.82085,-6.18944,1679.36,1401.7)">
                            <path d="M1.827,-0.556C2.293,-0.238 2.788,0.012 3.299,0.195L1.827,5.05C0.735,4.686 -0.315,4.155 -1.291,3.447L1.827,-0.556Z" style="fill:rgb(233,37,60);fill-rule:nonzero;"/>
                        </g>
                        <g transform="matrix(-5.13997,-5.92711,-5.92711,5.13997,1632.31,1531.1)">
                            <path d="M-1.887,-5.236C-1.414,-4.894 -0.905,-4.623 -0.373,-4.42L-1.887,0.425C-3.002,0.034 -4.066,-0.528 -5.037,-1.262L-1.887,-5.236Z" style="fill:rgb(221,23,104);fill-rule:nonzero;"/>
                        </g>
                        <g transform="matrix(7.49687,2.31231,2.31231,-7.49687,1663.01,1415.49)">
                            <path d="M0.787,0.146C1.24,0.459 1.741,0.721 2.282,0.917L0.787,5.764C-0.369,5.374 -1.424,4.816 -2.361,4.128L0.787,0.146Z" style="fill:rgb(26,73,107);fill-rule:nonzero;"/>
                        </g>
                        <g transform="matrix(0.209635,-7.84257,-7.84257,-0.209635,1614.57,1477.69)">
                            <path d="M-1.99,-3.563C-1.522,-3.228 -1.01,-2.952 -0.46,-2.75L-1.99,2.088C-3.144,1.689 -4.211,1.112 -5.167,0.393L-1.99,-3.563Z" style="fill:rgb(199,152,45);fill-rule:nonzero;"/>
                        </g>
                        <g transform="matrix(7.8224,-0.59989,-0.59989,-7.8224,1654.49,1424.27)">
                            <path d="M-0.216,-0.069C0.238,0.236 0.729,0.486 1.251,0.673L-0.216,5.529C-1.34,5.155 -2.392,4.613 -3.338,3.932L-0.216,-0.069Z" style="fill:rgb(3,105,157);fill-rule:nonzero;"/>
                        </g>
                    </g>
                    <g transform="matrix(3.98024,0,0,26.1263,-12506.8,-27285.5)">
                        <path d="M3484.07,983.701C3482.12,983.701 3480.43,983.656 3479,983.566C3477.57,983.476 3476.26,983.334 3475.08,983.141L3478.79,982.571C3479.6,982.701 3480.46,982.8 3481.38,982.868C3482.3,982.937 3483.34,982.971 3484.5,982.971C3485.48,982.971 3486.24,982.945 3486.78,982.893C3487.32,982.841 3487.59,982.771 3487.59,982.681C3487.59,982.597 3487.39,982.528 3486.99,982.473C3486.6,982.418 3486.08,982.37 3485.43,982.328C3484.79,982.286 3484.08,982.246 3483.3,982.208C3482.52,982.17 3481.75,982.123 3480.97,982.068C3480.19,982.013 3479.48,981.945 3478.84,981.865C3478.19,981.785 3477.67,981.685 3477.28,981.565C3476.88,981.445 3476.69,981.297 3476.69,981.12C3476.69,980.894 3477.04,980.7 3477.75,980.54C3478.46,980.38 3479.45,980.257 3480.72,980.17C3481.99,980.083 3483.47,980.04 3485.16,980.04C3486.84,980.04 3488.39,980.083 3489.82,980.17C3491.24,980.257 3492.41,980.377 3493.33,980.53L3489.59,981.095C3488.89,980.989 3488.18,980.909 3487.45,980.855C3486.73,980.802 3485.94,980.775 3485.09,980.775C3484.28,980.775 3483.65,980.797 3483.19,980.84C3482.73,980.884 3482.5,980.945 3482.5,981.025C3482.5,981.105 3482.69,981.17 3483.09,981.22C3483.48,981.27 3484,981.314 3484.65,981.353C3485.29,981.391 3486,981.43 3486.78,981.47C3487.56,981.51 3488.33,981.557 3489.1,981.61C3489.86,981.664 3490.57,981.732 3491.21,981.815C3491.86,981.899 3492.38,982.004 3492.77,982.13C3493.17,982.257 3493.36,982.411 3493.36,982.591C3493.36,982.944 3492.55,983.217 3490.92,983.411C3489.29,983.604 3487.01,983.701 3484.07,983.701Z" style="fill:rgb(25,72,106);fill-rule:nonzero;"/>
                    </g>
                    <g transform="matrix(3.98024,0,0,26.1263,-12506.8,-27285.5)">
                        <path d="M3499.73,983.646L3499.73,982.876L3505.31,982.876C3506.62,982.876 3507.77,982.837 3508.74,982.761C3509.72,982.684 3510.47,982.57 3510.99,982.418C3511.52,982.266 3511.78,982.082 3511.78,981.865C3511.78,981.652 3511.51,981.471 3510.97,981.323C3510.44,981.174 3509.69,981.062 3508.73,980.985C3507.76,980.909 3506.62,980.87 3505.31,980.87L3499.47,980.87L3499.47,980.1L3505.35,980.1C3507.14,980.1 3508.79,980.143 3510.3,980.228C3511.81,980.313 3513.12,980.433 3514.24,980.59C3515.36,980.747 3516.23,980.934 3516.85,981.15C3517.47,981.367 3517.79,981.607 3517.79,981.87C3517.79,982.137 3517.47,982.379 3516.85,982.596C3516.23,982.812 3515.36,982.999 3514.24,983.156C3513.12,983.312 3511.82,983.433 3510.32,983.518C3508.82,983.603 3507.18,983.646 3505.41,983.646L3499.73,983.646ZM3495.76,983.646L3495.76,980.1L3501.64,980.1L3501.64,983.646L3495.76,983.646Z" style="fill:rgb(25,72,106);fill-rule:nonzero;"/>
                    </g>
                    <g transform="matrix(3.98024,0,0,26.1263,-12506.8,-27285.5)">
                        <path d="M3531.41,983.701C3529.64,983.701 3528,983.655 3526.5,983.563C3525,983.472 3523.69,983.342 3522.56,983.176C3521.44,983.009 3520.56,982.815 3519.94,982.593C3519.31,982.371 3519,982.13 3519,981.87C3519,981.607 3519.32,981.364 3519.97,981.143C3520.62,980.921 3521.52,980.728 3522.68,980.563C3523.84,980.398 3525.19,980.269 3526.73,980.178C3528.28,980.086 3529.92,980.04 3531.67,980.04C3533.75,980.04 3535.63,980.096 3537.32,980.208C3539,980.319 3540.37,980.473 3541.42,980.67L3537.48,981.27C3536.7,981.127 3535.83,981.019 3534.89,980.948C3533.95,980.876 3532.85,980.84 3531.61,980.84C3530.34,980.84 3529.2,980.883 3528.21,980.968C3527.21,981.053 3526.42,981.172 3525.83,981.325C3525.24,981.479 3524.94,981.659 3524.94,981.865C3524.94,982.072 3525.22,982.254 3525.78,982.411C3526.34,982.567 3527.1,982.689 3528.08,982.776C3529.05,982.862 3530.17,982.906 3531.44,982.906C3532.71,982.906 3533.79,982.869 3534.68,982.796C3535.56,982.722 3536.24,982.616 3536.71,982.476C3537.18,982.336 3537.42,982.169 3537.42,981.975L3541.39,982.366L3530.79,982.326L3530.79,981.595L3543.33,981.595L3543.33,981.73C3543.33,982.154 3542.82,982.512 3541.82,982.806C3540.81,983.099 3539.41,983.322 3537.63,983.473C3535.85,983.625 3533.77,983.701 3531.41,983.701Z" style="fill:rgb(25,72,106);fill-rule:nonzero;"/>
                    </g>
                    <g transform="matrix(3.98024,0,0,26.1263,-12204.1,-27398.9)">
                        <path d="M3476.78,987.993L3476.78,984.447L3482.66,984.447L3482.66,987.993L3476.78,987.993ZM3491.03,987.993L3491.03,984.447L3496.91,984.447L3496.91,987.993L3491.03,987.993ZM3480.13,986.552L3480.13,985.802L3493.17,985.802L3493.17,986.552L3480.13,986.552Z" style="fill:rgb(25,72,106);fill-rule:nonzero;"/>
                    </g>
                    <g transform="matrix(3.98024,0,0,26.1263,-12205.3,-27398.9)">
                        <path d="M3537.45,988.048C3535.48,988.048 3533.75,987.985 3532.25,987.86C3530.75,987.735 3529.58,987.561 3528.75,987.337C3527.92,987.114 3527.5,986.861 3527.5,986.577L3527.5,984.447L3533.35,984.447L3533.35,986.642C3533.35,986.769 3533.53,986.878 3533.89,986.97C3534.25,987.062 3534.74,987.132 3535.37,987.18C3535.99,987.228 3536.68,987.252 3537.45,987.252C3538.24,987.252 3538.93,987.228 3539.52,987.18C3540.11,987.132 3540.58,987.062 3540.93,986.972C3541.28,986.882 3541.45,986.774 3541.45,986.647L3541.45,984.447L3547.36,984.447L3547.36,986.582C3547.36,986.866 3546.95,987.118 3546.12,987.34C3545.28,987.562 3544.13,987.735 3542.65,987.86C3541.18,987.985 3539.44,988.048 3537.45,988.048Z" style="fill:rgb(25,72,106);fill-rule:nonzero;"/>
                    </g>
                    <g transform="matrix(3.98024,0,0,26.1263,-12205.3,-27398.9)">
                        <path d="M3557.54,988.048C3555.59,988.048 3553.9,988.003 3552.47,987.913C3551.03,987.823 3549.73,987.681 3548.55,987.487L3552.26,986.917C3553.07,987.047 3553.93,987.147 3554.85,987.215C3555.77,987.283 3556.81,987.317 3557.97,987.317C3558.95,987.317 3559.71,987.292 3560.25,987.24C3560.78,987.188 3561.05,987.117 3561.05,987.027C3561.05,986.944 3560.86,986.875 3560.46,986.82C3560.07,986.765 3559.55,986.716 3558.9,986.675C3558.26,986.633 3557.55,986.593 3556.77,986.555C3555.99,986.516 3555.22,986.47 3554.44,986.415C3553.66,986.36 3552.95,986.292 3552.3,986.212C3551.66,986.132 3551.14,986.032 3550.74,985.912C3550.35,985.792 3550.15,985.644 3550.15,985.467C3550.15,985.24 3550.51,985.047 3551.22,984.887C3551.93,984.727 3552.92,984.604 3554.19,984.517C3555.46,984.43 3556.94,984.387 3558.62,984.387C3560.31,984.387 3561.86,984.43 3563.28,984.517C3564.71,984.604 3565.88,984.724 3566.8,984.877L3563.06,985.442C3562.36,985.335 3561.64,985.255 3560.92,985.202C3560.2,985.149 3559.41,985.122 3558.56,985.122C3557.75,985.122 3557.11,985.144 3556.65,985.187C3556.19,985.23 3555.97,985.292 3555.97,985.372C3555.97,985.452 3556.16,985.517 3556.56,985.567C3556.95,985.617 3557.47,985.661 3558.12,985.7C3558.76,985.738 3559.47,985.777 3560.25,985.817C3561.03,985.857 3561.8,985.904 3562.56,985.957C3563.33,986.01 3564.03,986.079 3564.68,986.162C3565.33,986.246 3565.85,986.351 3566.24,986.477C3566.63,986.604 3566.83,986.757 3566.83,986.937C3566.83,987.291 3566.01,987.564 3564.39,987.758C3562.75,987.951 3560.47,988.048 3557.54,988.048Z" style="fill:rgb(25,72,106);fill-rule:nonzero;"/>
                    </g>
                    <g transform="matrix(3.98024,0,0,26.1263,-12205.3,-27398.9)">
                        <path d="M3569.23,987.993L3569.23,984.447L3575.1,984.447L3575.1,987.993L3569.23,987.993ZM3573.89,987.993L3573.89,987.237L3586.49,987.237L3586.49,987.993L3573.89,987.993ZM3573.89,986.552L3573.89,985.817L3585.31,985.817L3585.31,986.552L3573.89,986.552ZM3573.89,985.202L3573.89,984.447L3586.3,984.447L3586.3,985.202L3573.89,985.202Z" style="fill:rgb(25,72,106);fill-rule:nonzero;"/>
                    </g>
                    <g transform="matrix(3.98024,0,0,26.1263,-11728.4,-27512.4)">
                        <path d="M3481.45,991.069L3481.45,990.404L3486.04,990.404C3486.61,990.404 3487.13,990.386 3487.6,990.351C3488.07,990.316 3488.45,990.264 3488.73,990.194C3489.02,990.124 3489.16,990.037 3489.16,989.934C3489.16,989.83 3489.02,989.743 3488.73,989.671C3488.45,989.6 3488.07,989.546 3487.6,989.511C3487.13,989.476 3486.61,989.459 3486.04,989.459L3481.45,989.459L3481.45,988.794L3487.06,988.794C3488.55,988.794 3489.89,988.839 3491.1,988.931C3492.3,989.023 3493.25,989.153 3493.95,989.321C3494.65,989.49 3495,989.694 3495,989.934C3495,990.167 3494.65,990.37 3493.95,990.541C3493.25,990.713 3492.3,990.844 3491.1,990.934C3489.89,991.024 3488.55,991.069 3487.06,991.069L3481.45,991.069ZM3476.78,992.339L3476.78,988.794L3482.66,988.794L3482.66,992.339L3476.78,992.339Z" style="fill:rgb(25,72,106);fill-rule:nonzero;"/>
                    </g>
                    <g transform="matrix(3.98024,0,0,26.1263,-11728.4,-27512.4)">
                        <path d="M3497.01,992.339L3497.01,988.794L3502.88,988.794L3502.88,992.339L3497.01,992.339ZM3501.67,992.339L3501.67,991.569L3512.89,991.569L3512.89,992.339L3501.67,992.339Z" style="fill:rgb(25,72,106);fill-rule:nonzero;"/>
                    </g>
                    <g transform="matrix(3.98024,0,0,26.1263,-11728.4,-27512.4)">
                        <path d="M3515.03,992.339L3515.03,988.794L3520.91,988.794L3520.91,992.339L3515.03,992.339ZM3519.69,992.339L3519.69,991.584L3532.3,991.584L3532.3,992.339L3519.69,992.339ZM3519.69,990.899L3519.69,990.164L3531.11,990.164L3531.11,990.899L3519.69,990.899ZM3519.69,989.549L3519.69,988.794L3532.1,988.794L3532.1,989.549L3519.69,989.549Z" style="fill:rgb(25,72,106);fill-rule:nonzero;"/>
                    </g>
                    <g transform="matrix(3.98024,0,0,26.1263,-11728.4,-27512.4)">
                        <rect x="3535.02" y="988.794" width="5.876" height="3.546" style="fill:rgb(25,72,106);fill-rule:nonzero;"/>
                    </g>
                    <g transform="matrix(3.98024,0,0,26.1263,-11728.4,-27512.4)">
                        <path d="M3544.44,992.339L3544.44,988.794L3548.55,988.794L3550.32,989.519L3550.32,992.339L3544.44,992.339ZM3560.49,992.339L3546.9,989.709L3548.55,988.794L3562.17,991.424L3560.49,992.339ZM3560.49,992.339L3558.99,991.594L3558.99,988.794L3564.86,988.794L3564.86,992.339L3560.49,992.339Z" style="fill:rgb(25,72,106);fill-rule:nonzero;"/>
                    </g>
                    <g transform="matrix(3.98024,0,0,26.1263,-11725.2,-27512.4)">
                        <path d="M3571.3,992.339L3571.3,988.794L3577.11,988.794L3577.11,992.339L3571.3,992.339ZM3567.23,989.539L3567.23,988.794L3576.78,988.794L3576.78,989.539L3567.23,989.539Z" style="fill:rgb(25,72,106);fill-rule:nonzero;"/>
                    </g>
                    <g transform="matrix(3.98024,0,0,26.1263,-11725.2,-27512.4)">
                        <path d="M3582.1,992.339L3589.71,989.284L3595.39,989.284L3588.1,992.339L3582.1,992.339ZM3579.08,989.539L3579.08,988.794L3595.39,988.794L3595.39,989.284L3593.62,989.539L3579.08,989.539Z" style="fill:rgb(25,72,106);fill-rule:nonzero;"/>
                    </g>
                </g>
            </g>
        </g>
    </g>
</svg>
