<?xml version="1.0" encoding="UTF-8" standalone="no"?>
<!DOCTYPE svg PUBLIC "-//W3C//DTD SVG 1.1//EN" "http://www.w3.org/Graphics/SVG/1.1/DTD/svg11.dtd">
<svg width="100%" height="100%" viewBox="0 0 1282 251" version="1.1" xmlns="http://www.w3.org/2000/svg" xmlns:xlink="http://www.w3.org/1999/xlink" xml:space="preserve" xmlns:serif="http://www.serif.com/" style="fill-rule:evenodd;clip-rule:evenodd;stroke-linejoin:round;stroke-miterlimit:2;">
    <g transform="matrix(1,0,0,1,-6593,-10113)">
        <g id="MerkMiddelen_WordmarkPlein17_Thin" transform="matrix(1,0,0,1,914.008,-3486.12)">
            <rect x="5679.5" y="13599.5" width="1281" height="250.522" style="fill:none;"/>
            <clipPath id="_clip1">
                <rect x="5679.5" y="13599.5" width="1281" height="250.522"/>
            </clipPath>
            <g clip-path="url(#_clip1)">
                <g transform="matrix(2.6935,2.2903e-32,-2.2903e-32,2.6935,-2.91061,15766.8)">
                    <g transform="matrix(3.98024,0,0,26.1263,-11728.4,-26637.8)">
                        <path d="M3481.45,991.069L3481.45,990.404L3486.04,990.404C3486.61,990.404 3487.13,990.386 3487.6,990.351C3488.07,990.316 3488.45,990.264 3488.73,990.194C3489.02,990.124 3489.16,990.037 3489.16,989.934C3489.16,989.83 3489.02,989.743 3488.73,989.671C3488.45,989.6 3488.07,989.546 3487.6,989.511C3487.13,989.476 3486.61,989.459 3486.04,989.459L3481.45,989.459L3481.45,988.794L3487.06,988.794C3488.55,988.794 3489.89,988.839 3491.1,988.931C3492.3,989.023 3493.25,989.153 3493.95,989.321C3494.65,989.49 3495,989.694 3495,989.934C3495,990.167 3494.65,990.37 3493.95,990.541C3493.25,990.713 3492.3,990.844 3491.1,990.934C3489.89,991.024 3488.55,991.069 3487.06,991.069L3481.45,991.069ZM3476.78,992.339L3476.78,988.794L3482.66,988.794L3482.66,992.339L3476.78,992.339Z" style="fill:none;fill-rule:nonzero;stroke:rgb(91,169,221);stroke-width:0.02px;"/>
                    </g>
                    <g transform="matrix(3.98024,0,0,26.1263,-11728.4,-26637.8)">
                        <path d="M3497.01,992.339L3497.01,988.794L3502.88,988.794L3502.88,992.339L3497.01,992.339ZM3501.67,992.339L3501.67,991.569L3512.89,991.569L3512.89,992.339L3501.67,992.339Z" style="fill:none;fill-rule:nonzero;stroke:rgb(91,169,221);stroke-width:0.02px;"/>
                    </g>
                    <g transform="matrix(3.98024,0,0,26.1263,-11728.4,-26637.8)">
                        <path d="M3515.03,992.339L3515.03,988.794L3520.91,988.794L3520.91,992.339L3515.03,992.339ZM3519.69,992.339L3519.69,991.584L3532.3,991.584L3532.3,992.339L3519.69,992.339ZM3519.69,990.899L3519.69,990.164L3531.11,990.164L3531.11,990.899L3519.69,990.899ZM3519.69,989.549L3519.69,988.794L3532.1,988.794L3532.1,989.549L3519.69,989.549Z" style="fill:none;fill-rule:nonzero;stroke:rgb(91,169,221);stroke-width:0.02px;"/>
                    </g>
                    <g transform="matrix(3.98024,0,0,26.1263,-11728.4,-26637.8)">
                        <rect x="3535.02" y="988.794" width="5.876" height="3.546" style="fill:none;fill-rule:nonzero;stroke:rgb(91,169,221);stroke-width:0.02px;"/>
                    </g>
                    <g transform="matrix(3.98024,0,0,26.1263,-11728.4,-26637.8)">
                        <path d="M3544.44,992.339L3544.44,988.794L3548.55,988.794L3550.32,989.519L3550.32,992.339L3544.44,992.339ZM3560.49,992.339L3546.9,989.709L3548.55,988.794L3562.17,991.424L3560.49,992.339ZM3560.49,992.339L3558.99,991.594L3558.99,988.794L3564.86,988.794L3564.86,992.339L3560.49,992.339Z" style="fill:none;fill-rule:nonzero;stroke:rgb(91,169,221);stroke-width:0.02px;"/>
                    </g>
                    <g transform="matrix(3.98024,0,0,26.1263,-11725.2,-26637.8)">
                        <path d="M3571.3,992.339L3571.3,988.794L3577.11,988.794L3577.11,992.339L3571.3,992.339ZM3567.23,989.539L3567.23,988.794L3577.11,988.794L3577.11,989.539L3567.23,989.539Z" style="fill:none;fill-rule:nonzero;stroke:rgb(91,169,221);stroke-width:0.02px;"/>
                    </g>
                    <g transform="matrix(3.98024,0,0,26.1263,-11725.2,-26637.8)">
                        <path d="M3582.1,992.339L3589.71,989.284L3595.39,989.284L3588.1,992.339L3582.1,992.339ZM3579.08,989.539L3579.08,988.794L3595.39,988.794L3595.39,989.284L3593.62,989.539L3579.08,989.539Z" style="fill:none;fill-rule:nonzero;stroke:rgb(91,169,221);stroke-width:0.02px;"/>
                    </g>
                </g>
            </g>
        </g>
    </g>
</svg>
