<?xml version="1.0" encoding="UTF-8" standalone="no"?>
<!DOCTYPE svg PUBLIC "-//W3C//DTD SVG 1.1//EN" "http://www.w3.org/Graphics/SVG/1.1/DTD/svg11.dtd">
<svg width="100%" height="100%" viewBox="0 0 1281 1254" version="1.1" xmlns="http://www.w3.org/2000/svg" xmlns:xlink="http://www.w3.org/1999/xlink" xml:space="preserve" xmlns:serif="http://www.serif.com/" style="fill-rule:evenodd;clip-rule:evenodd;stroke-linejoin:round;stroke-miterlimit:2;">
    <g transform="matrix(1,0,0,1,-6594,0)">
        <g id="MerkMiddelen_IcoonSDG17" transform="matrix(1,0,0,1,754.008,-3448.45)">
            <rect x="5840" y="3448.45" width="1280" height="1253.1" style="fill:none;"/>
            <clipPath id="_clip1">
                <rect x="5840" y="3448.45" width="1280" height="1253.1"/>
            </clipPath>
            <g clip-path="url(#_clip1)">
                <g transform="matrix(6.36784,0,0,6.36784,5126.2,2261.3)">
                    <path d="M248.426,277.872C258.811,268.235 265.329,254.483 265.329,239.229C265.329,236.947 265.167,234.699 264.887,232.491C285.991,234.751 302.489,252.659 302.489,274.36C302.489,286.689 297.13,297.761 288.652,305.472C280.716,290.601 265.869,279.968 248.426,277.872ZM284.222,330.213C284.222,353.427 265.329,372.32 242.107,372.32C234.549,372.32 227.478,370.293 221.341,366.795C230.299,357.34 235.822,344.582 235.822,330.563C235.822,327.111 235.473,323.739 234.839,320.473C242.411,324.682 251.114,327.087 260.376,327.087C268.614,327.087 276.419,325.184 283.367,321.796C283.927,324.519 284.222,327.333 284.222,330.213ZM140.978,330.563C140.978,327.568 141.297,324.652 141.899,321.836C148.837,325.199 156.613,327.087 164.824,327.087C174.057,327.087 182.729,324.697 190.284,320.514C189.697,323.658 189.373,326.899 189.373,330.213C189.373,344.454 195.068,357.39 204.279,366.888C198.045,370.539 190.818,372.669 183.093,372.669C159.866,372.669 140.978,353.778 140.978,330.563ZM122.711,274.36C122.711,252.659 139.204,234.754 160.308,232.491C160.028,234.699 159.866,236.947 159.866,239.229C159.866,254.643 166.519,268.533 177.094,278.182C159.603,280.173 144.683,290.744 136.664,305.581C128.123,297.871 122.711,286.747 122.711,274.36ZM212.595,197.117C229.852,197.117 244.696,207.553 251.199,222.44C234.068,225.46 219.766,236.768 212.595,252.071C205.433,236.766 191.127,225.458 173.995,222.44C180.499,207.553 195.343,197.117 212.595,197.117ZM222.624,292.912C228.459,289.853 235.073,288.098 242.107,288.098C258.663,288.098 272.977,297.727 279.859,311.657C274.021,314.718 267.397,316.472 260.376,316.472C243.814,316.472 229.498,306.842 222.624,292.912ZM202.434,293.196C195.505,306.974 181.27,316.472 164.824,316.472C157.849,316.472 151.277,314.736 145.479,311.723C152.407,297.945 166.647,288.448 183.093,288.448C190.071,288.448 196.635,290.18 202.434,293.196ZM171.035,232.754C191.314,235.769 206.939,253.25 206.939,274.36C206.939,276.563 206.716,278.716 206.386,280.83C186.105,277.812 170.484,260.337 170.484,239.229C170.484,237.021 170.706,234.868 171.035,232.754ZM212.791,360.377C204.908,352.722 199.991,342.034 199.991,330.213C199.991,318.57 204.748,308.018 212.403,300.388C220.282,308.044 225.203,318.732 225.203,330.563C225.203,342.199 220.452,352.748 212.791,360.377ZM254.71,239.229C254.71,260.337 239.09,277.812 218.808,280.83C218.479,278.716 218.261,276.563 218.261,274.36C218.261,253.25 233.881,235.772 254.16,232.756C254.489,234.868 254.71,237.021 254.71,239.229ZM313.105,274.36C313.105,245.929 290.487,222.699 262.312,221.672C255.064,201.205 235.518,186.5 212.595,186.5C189.677,186.5 170.133,201.205 162.878,221.672C134.703,222.702 112.095,245.931 112.095,274.36C112.095,291.23 120.07,306.268 132.443,315.927C131.099,320.579 130.358,325.485 130.358,330.563C130.358,359.628 154.014,383.285 183.093,383.285C194.127,383.285 204.374,379.87 212.853,374.052C221.231,379.658 231.292,382.933 242.107,382.933C271.181,382.933 294.836,359.279 294.836,330.213C294.836,325.237 294.13,320.428 292.838,315.866C305.159,306.204 313.105,291.195 313.105,274.36Z" style="fill:white;fill-rule:nonzero;"/>
                </g>
            </g>
        </g>
    </g>
</svg>
