<?xml version="1.0" encoding="UTF-8" standalone="no"?>
<!DOCTYPE svg PUBLIC "-//W3C//DTD SVG 1.1//EN" "http://www.w3.org/Graphics/SVG/1.1/DTD/svg11.dtd">
<svg width="100%" height="100%" viewBox="0 0 1275 1281" version="1.1" xmlns="http://www.w3.org/2000/svg" xmlns:xlink="http://www.w3.org/1999/xlink" xml:space="preserve" xmlns:serif="http://www.serif.com/" style="fill-rule:evenodd;clip-rule:evenodd;stroke-linejoin:round;stroke-miterlimit:2;">
    <g transform="matrix(1,0,0,1,-6597,-8420)">
        <g id="MerkMiddelen_WordmarkPlein17" transform="matrix(1,0,0,1,841.015,-3199.72)">
            <rect x="5755.98" y="11620" width="1274.02" height="1280" style="fill:none;"/>
            <clipPath id="_clip1">
                <rect x="5755.98" y="11620" width="1274.02" height="1280"/>
            </clipPath>
            <g clip-path="url(#_clip1)">
                <g transform="matrix(3.25505,0,0,3.25505,-6991.87,14448)">
                    <g transform="matrix(1.31024,0,0,1.31024,-2524.46,3379.28)">
                        <g>
                            <g transform="matrix(0.99014,0,0,0.99014,49.8797,-30.5635)">
                                <circle cx="5070" cy="-3090" r="75" style="fill:white;"/>
                            </g>
                            <g>
                                <g transform="matrix(5.46434,-2.55117,-2.55117,-5.46434,5041.3,-3116.01)">
                                    <path d="M-1.24,-0.502C-0.771,-0.179 -0.262,0.081 0.271,0.272L-1.24,5.112C-2.365,4.732 -3.434,4.179 -4.4,3.472L-1.24,-0.502Z" style="fill:rgb(95,187,70);fill-rule:nonzero;"/>
                                </g>
                                <g transform="matrix(3.04468,5.20552,5.20552,-3.04468,5083.58,-3144.45)">
                                    <path d="M2.86,-1.147C3.327,-0.82 3.83,-0.556 4.359,-0.362L2.86,4.482C1.732,4.097 0.66,3.539 -0.308,2.819L2.86,-1.147Z" style="fill:rgb(229,183,51);fill-rule:nonzero;"/>
                                </g>
                                <g transform="matrix(-5.39697,2.69076,2.69076,5.39697,5118.41,-3092.35)">
                                    <path d="M-4.251,-2.868L0.823,-2.868C0.855,-2.319 0.957,-1.767 1.133,-1.229L-3.601,0.599C-4.002,-0.539 -4.214,-1.708 -4.251,-2.868" style="fill:rgb(197,33,47);fill-rule:nonzero;"/>
                                </g>
                                <g transform="matrix(5.39697,-2.69076,-2.69076,-5.39697,5112.24,-3106.43)">
                                    <path d="M-0.948,1.055L4.126,1.055C4.09,2.241 3.871,3.411 3.484,4.522L-1.251,2.705C-1.081,2.171 -0.977,1.617 -0.948,1.055" style="fill:rgb(75,159,69);fill-rule:nonzero;"/>
                                </g>
                                <g transform="matrix(6.03055,0,0,6.03055,5030.36,-3077.73)">
                                    <path d="M0,-2.054C0,-2.157 0.003,-2.258 0.008,-2.36L-5.045,-2.812C-5.062,-2.562 -5.071,-2.309 -5.071,-2.054C-5.071,-1.084 -4.95,-0.143 -4.728,0.758L0.153,-0.643C0.054,-1.098 0,-1.571 0,-2.054" style="fill:rgb(66,127,68);fill-rule:nonzero;"/>
                                </g>
                                <g transform="matrix(-5.83352,1.52892,1.52892,5.83352,5121.35,-3034.72)">
                                    <path d="M2.075,-5.746C2.534,-5.415 3.034,-5.143 3.561,-4.938L2.075,-0.082C0.948,-0.48 -0.112,-1.05 -1.066,-1.767L2.075,-5.746Z" style="fill:rgb(249,196,22);fill-rule:nonzero;"/>
                                </g>
                                <g transform="matrix(6.03055,0,0,6.03055,5109.43,-3077.56)">
                                    <path d="M0,-2.082C0,-1.604 -0.052,-1.138 -0.15,-0.688L4.729,0.714C4.951,-0.183 5.07,-1.118 5.07,-2.082C5.07,-2.321 5.062,-2.56 5.047,-2.796L-0.006,-2.317C-0.002,-2.239 0,-2.161 0,-2.082" style="fill:rgb(239,65,44);fill-rule:nonzero;"/>
                                </g>
                                <g transform="matrix(-4.80166,3.6485,3.6485,4.80166,5034.77,-3029.86)">
                                    <path d="M-4.142,-4.064L0.931,-4.064C0.892,-2.874 0.672,-1.692 0.276,-0.565L-4.458,-2.387C-4.28,-2.93 -4.175,-3.494 -4.142,-4.064" style="fill:rgb(249,159,39);fill-rule:nonzero;"/>
                                </g>
                                <g transform="matrix(4.17425,-4.35238,-4.35238,-4.17425,5035.08,-3109.92)">
                                    <path d="M-2.108,-1.052C-1.633,-0.721 -1.125,-0.464 -0.598,-0.273L-2.108,4.568C-3.226,4.191 -4.298,3.638 -5.281,2.913L-2.108,-1.052Z" style="fill:rgb(26,150,212);fill-rule:nonzero;"/>
                                </g>
                                <g transform="matrix(-3.16823,-5.13126,-5.13126,3.16823,5093.67,-3054.31)">
                                    <path d="M-4.496,0.496L0.573,0.496C0.596,1.051 0.687,1.608 0.854,2.152L-3.887,3.973C-4.272,2.836 -4.473,1.664 -4.496,0.496" style="fill:rgb(162,28,68);fill-rule:nonzero;"/>
                                </g>
                                <g transform="matrix(-4.84829,3.58632,3.58632,4.84829,5138.11,-3060.34)">
                                    <path d="M2.415,-5.314C2.867,-5.001 3.35,-4.75 3.854,-4.561L2.415,0.306C1.323,-0.064 0.281,-0.597 -0.672,-1.288L2.415,-5.314Z" style="fill:rgb(40,189,226);fill-rule:nonzero;"/>
                                </g>
                                <g transform="matrix(6.03055,0,0,6.03055,5075.6,-3020)">
                                    <path d="M0,-5.14C-0.309,-5.095 -0.625,-5.071 -0.945,-5.071C-1.205,-5.071 -1.459,-5.086 -1.709,-5.116L-2.648,-0.125C-2.093,-0.043 -1.525,0 -0.945,0C-0.305,0 0.325,-0.054 0.938,-0.155L0,-5.14Z" style="fill:rgb(243,106,44);fill-rule:nonzero;"/>
                                </g>
                                <g transform="matrix(4.75768,3.70568,3.70568,-4.75768,5065.79,-3138.98)">
                                    <path d="M1.827,-0.556C2.293,-0.238 2.788,0.012 3.299,0.195L1.827,5.05C0.735,4.686 -0.315,4.155 -1.291,3.447L1.827,-0.556Z" style="fill:rgb(233,37,60);fill-rule:nonzero;"/>
                                </g>
                                <g transform="matrix(-3.95097,-4.55603,-4.55603,3.95097,5029.62,-3039.51)">
                                    <path d="M-1.887,-5.236C-1.414,-4.894 -0.905,-4.623 -0.373,-4.42L-1.887,0.425C-3.002,0.034 -4.066,-0.528 -5.037,-1.262L-1.887,-5.236Z" style="fill:rgb(221,23,104);fill-rule:nonzero;"/>
                                </g>
                                <g transform="matrix(5.76267,1.77742,1.77742,-5.76267,5053.22,-3128.38)">
                                    <path d="M0.787,0.146C1.24,0.459 1.741,0.721 2.282,0.917L0.787,5.764C-0.369,5.374 -1.424,4.816 -2.361,4.128L0.787,0.146Z" style="fill:rgb(26,73,107);fill-rule:nonzero;"/>
                                </g>
                                <g transform="matrix(0.161141,-6.0284,-6.0284,-0.161141,5015.98,-3080.57)">
                                    <path d="M-1.99,-3.563C-1.522,-3.228 -1.01,-2.952 -0.46,-2.75L-1.99,2.088C-3.144,1.689 -4.211,1.112 -5.167,0.393L-1.99,-3.563Z" style="fill:rgb(199,152,45);fill-rule:nonzero;"/>
                                </g>
                                <g transform="matrix(6.01289,-0.461121,-0.461121,-6.01289,5046.67,-3121.63)">
                                    <path d="M-0.216,-0.069C0.238,0.236 0.729,0.486 1.251,0.673L-0.216,5.529C-1.34,5.155 -2.392,4.613 -3.338,3.932L-0.216,-0.069Z" style="fill:rgb(3,105,157);fill-rule:nonzero;"/>
                                </g>
                            </g>
                        </g>
                    </g>
                    <g transform="matrix(3.57563e-17,-0.583944,0.583944,3.57563e-17,4386.28,756.574)">
                        <g transform="matrix(3.98024,0,0,26.1263,-11728.4,-26637.8)">
                            <path d="M3481.45,991.069L3481.45,990.404L3486.04,990.404C3486.61,990.404 3487.13,990.386 3487.6,990.351C3488.07,990.316 3488.45,990.264 3488.73,990.194C3489.02,990.124 3489.16,990.037 3489.16,989.934C3489.16,989.83 3489.02,989.743 3488.73,989.671C3488.45,989.6 3488.07,989.546 3487.6,989.511C3487.13,989.476 3486.61,989.459 3486.04,989.459L3481.45,989.459L3481.45,988.794L3487.06,988.794C3488.55,988.794 3489.89,988.839 3491.1,988.931C3492.3,989.023 3493.25,989.153 3493.95,989.321C3494.65,989.49 3495,989.694 3495,989.934C3495,990.167 3494.65,990.37 3493.95,990.541C3493.25,990.713 3492.3,990.844 3491.1,990.934C3489.89,991.024 3488.55,991.069 3487.06,991.069L3481.45,991.069ZM3476.78,992.339L3476.78,988.794L3482.66,988.794L3482.66,992.339L3476.78,992.339Z" style="fill:white;fill-rule:nonzero;"/>
                        </g>
                        <g transform="matrix(3.98024,0,0,26.1263,-11728.4,-26637.8)">
                            <path d="M3497.01,992.339L3497.01,988.794L3502.88,988.794L3502.88,992.339L3497.01,992.339ZM3501.67,992.339L3501.67,991.569L3512.89,991.569L3512.89,992.339L3501.67,992.339Z" style="fill:white;fill-rule:nonzero;"/>
                        </g>
                        <g transform="matrix(3.98024,0,0,26.1263,-11728.4,-26637.8)">
                            <path d="M3515.03,992.339L3515.03,988.794L3520.91,988.794L3520.91,992.339L3515.03,992.339ZM3519.69,992.339L3519.69,991.584L3532.3,991.584L3532.3,992.339L3519.69,992.339ZM3519.69,990.899L3519.69,990.164L3531.11,990.164L3531.11,990.899L3519.69,990.899ZM3519.69,989.549L3519.69,988.794L3532.1,988.794L3532.1,989.549L3519.69,989.549Z" style="fill:white;fill-rule:nonzero;"/>
                        </g>
                        <g transform="matrix(3.98024,0,0,26.1263,-11728.4,-26637.8)">
                            <rect x="3535.02" y="988.794" width="5.876" height="3.546" style="fill:white;fill-rule:nonzero;"/>
                        </g>
                        <g transform="matrix(3.98024,0,0,26.1263,-11728.4,-26637.8)">
                            <path d="M3544.44,992.339L3544.44,988.794L3548.55,988.794L3550.32,989.519L3550.32,992.339L3544.44,992.339ZM3560.49,992.339L3546.9,989.709L3548.55,988.794L3562.17,991.424L3560.49,992.339ZM3560.49,992.339L3558.99,991.594L3558.99,988.794L3564.86,988.794L3564.86,992.339L3560.49,992.339Z" style="fill:white;fill-rule:nonzero;"/>
                        </g>
                        <g transform="matrix(3.98024,0,0,26.1263,-11725.2,-26637.8)">
                            <path d="M3571.3,992.339L3571.3,988.794L3577.11,988.794L3577.11,992.339L3571.3,992.339ZM3567.23,989.539L3567.23,988.794L3576.78,988.794L3576.78,989.539L3567.23,989.539Z" style="fill:white;fill-rule:nonzero;"/>
                        </g>
                        <g transform="matrix(3.98024,0,0,26.1263,-11725.2,-26637.8)">
                            <path d="M3582.1,992.339L3589.71,989.284L3595.39,989.284L3588.1,992.339L3582.1,992.339ZM3579.08,989.539L3579.08,988.794L3595.39,988.794L3595.39,989.284L3593.62,989.539L3579.08,989.539Z" style="fill:white;fill-rule:nonzero;"/>
                        </g>
                    </g>
                    <g transform="matrix(0.583944,4.96533e-33,-4.96533e-33,0.583944,2684.48,-399.165)">
                        <g transform="matrix(3.98024,0,0,26.1263,-11728.4,-26637.8)">
                            <path d="M3481.45,991.069L3481.45,990.404L3486.04,990.404C3486.61,990.404 3487.13,990.386 3487.6,990.351C3488.07,990.316 3488.45,990.264 3488.73,990.194C3489.02,990.124 3489.16,990.037 3489.16,989.934C3489.16,989.83 3489.02,989.743 3488.73,989.671C3488.45,989.6 3488.07,989.546 3487.6,989.511C3487.13,989.476 3486.61,989.459 3486.04,989.459L3481.45,989.459L3481.45,988.794L3487.06,988.794C3488.55,988.794 3489.89,988.839 3491.1,988.931C3492.3,989.023 3493.25,989.153 3493.95,989.321C3494.65,989.49 3495,989.694 3495,989.934C3495,990.167 3494.65,990.37 3493.95,990.541C3493.25,990.713 3492.3,990.844 3491.1,990.934C3489.89,991.024 3488.55,991.069 3487.06,991.069L3481.45,991.069ZM3476.78,992.339L3476.78,988.794L3482.66,988.794L3482.66,992.339L3476.78,992.339Z" style="fill:white;fill-rule:nonzero;"/>
                        </g>
                        <g transform="matrix(3.98024,0,0,26.1263,-11728.4,-26637.8)">
                            <path d="M3497.01,992.339L3497.01,988.794L3502.88,988.794L3502.88,992.339L3497.01,992.339ZM3501.67,992.339L3501.67,991.569L3512.89,991.569L3512.89,992.339L3501.67,992.339Z" style="fill:white;fill-rule:nonzero;"/>
                        </g>
                        <g transform="matrix(3.98024,0,0,26.1263,-11728.4,-26637.8)">
                            <path d="M3515.03,992.339L3515.03,988.794L3520.91,988.794L3520.91,992.339L3515.03,992.339ZM3519.69,992.339L3519.69,991.584L3532.3,991.584L3532.3,992.339L3519.69,992.339ZM3519.69,990.899L3519.69,990.164L3531.11,990.164L3531.11,990.899L3519.69,990.899ZM3519.69,989.549L3519.69,988.794L3532.1,988.794L3532.1,989.549L3519.69,989.549Z" style="fill:white;fill-rule:nonzero;"/>
                        </g>
                        <g transform="matrix(3.98024,0,0,26.1263,-11728.4,-26637.8)">
                            <rect x="3535.02" y="988.794" width="5.876" height="3.546" style="fill:white;fill-rule:nonzero;"/>
                        </g>
                        <g transform="matrix(3.98024,0,0,26.1263,-11728.4,-26637.8)">
                            <path d="M3544.44,992.339L3544.44,988.794L3548.55,988.794L3550.32,989.519L3550.32,992.339L3544.44,992.339ZM3560.49,992.339L3546.9,989.709L3548.55,988.794L3562.17,991.424L3560.49,992.339ZM3560.49,992.339L3558.99,991.594L3558.99,988.794L3564.86,988.794L3564.86,992.339L3560.49,992.339Z" style="fill:white;fill-rule:nonzero;"/>
                        </g>
                        <g transform="matrix(3.98024,0,0,26.1263,-11725.2,-26637.8)">
                            <path d="M3571.3,992.339L3571.3,988.794L3577.11,988.794L3577.11,992.339L3571.3,992.339ZM3567.23,989.539L3567.23,988.794L3576.78,988.794L3576.78,989.539L3567.23,989.539Z" style="fill:white;fill-rule:nonzero;"/>
                        </g>
                        <g transform="matrix(3.98024,0,0,26.1263,-11725.2,-26637.8)">
                            <path d="M3582.1,992.339L3589.71,989.284L3595.39,989.284L3588.1,992.339L3582.1,992.339ZM3579.08,989.539L3579.08,988.794L3595.39,988.794L3595.39,989.284L3593.62,989.539L3579.08,989.539Z" style="fill:white;fill-rule:nonzero;"/>
                        </g>
                    </g>
                    <g transform="matrix(3.57563e-17,0.583944,-0.583944,3.57563e-17,3838.38,-2100.96)">
                        <g transform="matrix(3.98024,0,0,26.1263,-11728.4,-26637.8)">
                            <path d="M3481.45,991.069L3481.45,990.404L3486.04,990.404C3486.61,990.404 3487.13,990.386 3487.6,990.351C3488.07,990.316 3488.45,990.264 3488.73,990.194C3489.02,990.124 3489.16,990.037 3489.16,989.934C3489.16,989.83 3489.02,989.743 3488.73,989.671C3488.45,989.6 3488.07,989.546 3487.6,989.511C3487.13,989.476 3486.61,989.459 3486.04,989.459L3481.45,989.459L3481.45,988.794L3487.06,988.794C3488.55,988.794 3489.89,988.839 3491.1,988.931C3492.3,989.023 3493.25,989.153 3493.95,989.321C3494.65,989.49 3495,989.694 3495,989.934C3495,990.167 3494.65,990.37 3493.95,990.541C3493.25,990.713 3492.3,990.844 3491.1,990.934C3489.89,991.024 3488.55,991.069 3487.06,991.069L3481.45,991.069ZM3476.78,992.339L3476.78,988.794L3482.66,988.794L3482.66,992.339L3476.78,992.339Z" style="fill:white;fill-rule:nonzero;"/>
                        </g>
                        <g transform="matrix(3.98024,0,0,26.1263,-11728.4,-26637.8)">
                            <path d="M3497.01,992.339L3497.01,988.794L3502.88,988.794L3502.88,992.339L3497.01,992.339ZM3501.67,992.339L3501.67,991.569L3512.89,991.569L3512.89,992.339L3501.67,992.339Z" style="fill:white;fill-rule:nonzero;"/>
                        </g>
                        <g transform="matrix(3.98024,0,0,26.1263,-11728.4,-26637.8)">
                            <path d="M3515.03,992.339L3515.03,988.794L3520.91,988.794L3520.91,992.339L3515.03,992.339ZM3519.69,992.339L3519.69,991.584L3532.3,991.584L3532.3,992.339L3519.69,992.339ZM3519.69,990.899L3519.69,990.164L3531.11,990.164L3531.11,990.899L3519.69,990.899ZM3519.69,989.549L3519.69,988.794L3532.1,988.794L3532.1,989.549L3519.69,989.549Z" style="fill:white;fill-rule:nonzero;"/>
                        </g>
                        <g transform="matrix(3.98024,0,0,26.1263,-11728.4,-26637.8)">
                            <rect x="3535.02" y="988.794" width="5.876" height="3.546" style="fill:white;fill-rule:nonzero;"/>
                        </g>
                        <g transform="matrix(3.98024,0,0,26.1263,-11728.4,-26637.8)">
                            <path d="M3544.44,992.339L3544.44,988.794L3548.55,988.794L3550.32,989.519L3550.32,992.339L3544.44,992.339ZM3560.49,992.339L3546.9,989.709L3548.55,988.794L3562.17,991.424L3560.49,992.339ZM3560.49,992.339L3558.99,991.594L3558.99,988.794L3564.86,988.794L3564.86,992.339L3560.49,992.339Z" style="fill:white;fill-rule:nonzero;"/>
                        </g>
                        <g transform="matrix(3.98024,0,0,26.1263,-11725.2,-26637.8)">
                            <path d="M3571.3,992.339L3571.3,988.794L3577.11,988.794L3577.11,992.339L3571.3,992.339ZM3567.23,989.539L3567.23,988.794L3576.78,988.794L3576.78,989.539L3567.23,989.539Z" style="fill:white;fill-rule:nonzero;"/>
                        </g>
                        <g transform="matrix(3.98024,0,0,26.1263,-11725.2,-26637.8)">
                            <path d="M3582.1,992.339L3589.71,989.284L3595.39,989.284L3588.1,992.339L3582.1,992.339ZM3579.08,989.539L3579.08,988.794L3595.39,988.794L3595.39,989.284L3593.62,989.539L3579.08,989.539Z" style="fill:white;fill-rule:nonzero;"/>
                        </g>
                    </g>
                    <g transform="matrix(-0.583944,7.15126e-17,-7.15126e-17,-0.583944,5540.18,-945.225)">
                        <g transform="matrix(3.98024,0,0,26.1263,-11728.4,-26637.8)">
                            <path d="M3481.45,991.069L3481.45,990.404L3486.04,990.404C3486.61,990.404 3487.13,990.386 3487.6,990.351C3488.07,990.316 3488.45,990.264 3488.73,990.194C3489.02,990.124 3489.16,990.037 3489.16,989.934C3489.16,989.83 3489.02,989.743 3488.73,989.671C3488.45,989.6 3488.07,989.546 3487.6,989.511C3487.13,989.476 3486.61,989.459 3486.04,989.459L3481.45,989.459L3481.45,988.794L3487.06,988.794C3488.55,988.794 3489.89,988.839 3491.1,988.931C3492.3,989.023 3493.25,989.153 3493.95,989.321C3494.65,989.49 3495,989.694 3495,989.934C3495,990.167 3494.65,990.37 3493.95,990.541C3493.25,990.713 3492.3,990.844 3491.1,990.934C3489.89,991.024 3488.55,991.069 3487.06,991.069L3481.45,991.069ZM3476.78,992.339L3476.78,988.794L3482.66,988.794L3482.66,992.339L3476.78,992.339Z" style="fill:white;fill-rule:nonzero;"/>
                        </g>
                        <g transform="matrix(3.98024,0,0,26.1263,-11728.4,-26637.8)">
                            <path d="M3497.01,992.339L3497.01,988.794L3502.88,988.794L3502.88,992.339L3497.01,992.339ZM3501.67,992.339L3501.67,991.569L3512.89,991.569L3512.89,992.339L3501.67,992.339Z" style="fill:white;fill-rule:nonzero;"/>
                        </g>
                        <g transform="matrix(3.98024,0,0,26.1263,-11728.4,-26637.8)">
                            <path d="M3515.03,992.339L3515.03,988.794L3520.91,988.794L3520.91,992.339L3515.03,992.339ZM3519.69,992.339L3519.69,991.584L3532.3,991.584L3532.3,992.339L3519.69,992.339ZM3519.69,990.899L3519.69,990.164L3531.11,990.164L3531.11,990.899L3519.69,990.899ZM3519.69,989.549L3519.69,988.794L3532.1,988.794L3532.1,989.549L3519.69,989.549Z" style="fill:white;fill-rule:nonzero;"/>
                        </g>
                        <g transform="matrix(3.98024,0,0,26.1263,-11728.4,-26637.8)">
                            <rect x="3535.02" y="988.794" width="5.876" height="3.546" style="fill:white;fill-rule:nonzero;"/>
                        </g>
                        <g transform="matrix(3.98024,0,0,26.1263,-11728.4,-26637.8)">
                            <path d="M3544.44,992.339L3544.44,988.794L3548.55,988.794L3550.32,989.519L3550.32,992.339L3544.44,992.339ZM3560.49,992.339L3546.9,989.709L3548.55,988.794L3562.17,991.424L3560.49,992.339ZM3560.49,992.339L3558.99,991.594L3558.99,988.794L3564.86,988.794L3564.86,992.339L3560.49,992.339Z" style="fill:white;fill-rule:nonzero;"/>
                        </g>
                        <g transform="matrix(3.98024,0,0,26.1263,-11725.2,-26637.8)">
                            <path d="M3571.3,992.339L3571.3,988.794L3577.11,988.794L3577.11,992.339L3571.3,992.339ZM3567.23,989.539L3567.23,988.794L3576.78,988.794L3576.78,989.539L3567.23,989.539Z" style="fill:white;fill-rule:nonzero;"/>
                        </g>
                        <g transform="matrix(3.98024,0,0,26.1263,-11725.2,-26637.8)">
                            <path d="M3582.1,992.339L3589.71,989.284L3595.39,989.284L3588.1,992.339L3582.1,992.339ZM3579.08,989.539L3579.08,988.794L3595.39,988.794L3595.39,989.284L3593.62,989.539L3579.08,989.539Z" style="fill:white;fill-rule:nonzero;"/>
                        </g>
                    </g>
                </g>
            </g>
        </g>
    </g>
</svg>
