<?xml version="1.0" encoding="UTF-8" standalone="no"?>
<!DOCTYPE svg PUBLIC "-//W3C//DTD SVG 1.1//EN" "http://www.w3.org/Graphics/SVG/1.1/DTD/svg11.dtd">
<svg width="100%" height="100%" viewBox="0 0 1281 250" version="1.1" xmlns="http://www.w3.org/2000/svg" xmlns:xlink="http://www.w3.org/1999/xlink" xml:space="preserve" xmlns:serif="http://www.serif.com/" style="fill-rule:evenodd;clip-rule:evenodd;stroke-linejoin:round;stroke-miterlimit:2;">
    <g transform="matrix(1,0,0,1,-6594,-10777)">
        <g id="MerkMiddelen_WordmarkPlein17_Bold" transform="matrix(1,0,0,1,914.008,-3448.24)">
            <rect x="5680" y="14225.2" width="1280" height="249.522" style="fill:none;"/>
            <clipPath id="_clip1">
                <rect x="5680" y="14225.2" width="1280" height="249.522"/>
            </clipPath>
            <g clip-path="url(#_clip1)">
                <g transform="matrix(3.24982,0,0,3.24982,4722.99,15687.3)">
                    <g transform="matrix(3.29888,2.80506e-32,-1.84125e-31,21.6538,-11175,-21861)">
                        <path d="M3481.45,988.794L3481.45,989.459L3482.66,989.459L3482.66,990.404L3481.45,990.404L3481.45,991.069L3482.66,991.069L3482.66,990.404L3486.04,990.404C3486.61,990.404 3487.13,990.386 3487.6,990.351C3488.07,990.316 3488.45,990.264 3488.73,990.194C3489.02,990.124 3489.16,990.037 3489.16,989.934C3489.16,989.83 3489.02,989.743 3488.73,989.671C3488.45,989.6 3488.07,989.546 3487.6,989.511C3487.13,989.476 3486.61,989.459 3486.04,989.459L3482.66,989.459L3482.66,988.794L3487.06,988.794C3488.55,988.794 3489.89,988.839 3491.1,988.931C3492.3,989.023 3493.25,989.153 3493.95,989.321C3494.65,989.49 3495,989.694 3495,989.934C3495,990.167 3494.65,990.37 3493.95,990.541C3493.25,990.713 3492.3,990.844 3491.1,990.934C3489.89,991.024 3488.55,991.069 3487.06,991.069L3482.66,991.069L3482.66,992.339L3476.78,992.339L3476.78,988.794L3481.45,988.794Z" style="fill:rgb(91,169,221);"/>
                    </g>
                    <g transform="matrix(3.29888,2.80506e-32,-1.84125e-31,21.6538,-11175,-21861)">
                        <path d="M3502.88,991.569L3501.67,991.569L3501.67,992.339L3497.01,992.339L3497.01,988.794L3502.88,988.794L3502.88,991.569ZM3502.88,991.569L3512.89,991.569L3512.89,992.339L3502.88,992.339L3502.88,991.569Z" style="fill:rgb(91,169,221);"/>
                    </g>
                    <g transform="matrix(3.29888,2.80506e-32,-1.84125e-31,21.6538,-11175,-21861)">
                        <path d="M3519.69,988.794L3519.69,989.549L3520.91,989.549L3520.91,988.794L3532.1,988.794L3532.1,989.549L3520.91,989.549L3520.91,990.164L3519.69,990.164L3519.69,990.899L3520.91,990.899L3520.91,990.164L3531.11,990.164L3531.11,990.899L3520.91,990.899L3520.91,991.584L3519.69,991.584L3519.69,992.339L3515.03,992.339L3515.03,988.794L3519.69,988.794ZM3520.91,991.584L3532.3,991.584L3532.3,992.339L3520.91,992.339L3520.91,991.584Z" style="fill:rgb(91,169,221);"/>
                    </g>
                    <g transform="matrix(3.29888,2.80506e-32,-1.84125e-31,21.6538,-11175,-21861)">
                        <rect x="3535.02" y="988.794" width="5.876" height="3.546" style="fill:rgb(91,169,221);"/>
                    </g>
                    <g transform="matrix(3.29888,2.80506e-32,-1.84125e-31,21.6538,-11175,-21861)">
                        <path d="M3548.55,988.794L3546.9,989.709L3550.32,990.37L3550.32,992.339L3544.44,992.339L3544.44,988.794L3548.55,988.794ZM3558.99,990.809L3558.99,988.794L3564.86,988.794L3564.86,992.339L3560.49,992.339L3550.32,990.37L3550.32,989.519L3548.55,988.794L3558.99,990.809L3558.99,991.594L3560.49,992.339L3562.17,991.424L3558.99,990.809Z" style="fill:rgb(91,169,221);"/>
                    </g>
                    <g transform="matrix(3.29888,2.80506e-32,-1.84125e-31,21.6538,-11172.4,-21861)">
                        <path d="M3577.11,988.794L3577.11,992.339L3571.3,992.339L3571.3,989.539L3577.11,989.539L3577.11,988.794ZM3577.11,988.794L3571.3,988.794L3571.3,989.539L3567.23,989.539L3567.23,988.794L3577.11,988.794Z" style="fill:rgb(91,169,221);"/>
                    </g>
                    <g transform="matrix(3.29888,2.80506e-32,-1.84125e-31,21.6538,-11172.4,-21861)">
                        <path d="M3588.1,992.339L3582.1,992.339L3589.08,989.539L3593.62,989.539L3595.39,989.284L3588.1,992.339ZM3595.39,989.284L3589.71,989.284L3589.08,989.539L3579.08,989.539L3579.08,988.794L3595.39,988.794L3595.39,989.284Z" style="fill:rgb(91,169,221);"/>
                    </g>
                </g>
            </g>
        </g>
    </g>
</svg>
