<?xml version="1.0" encoding="UTF-8" standalone="no"?>
<!DOCTYPE svg PUBLIC "-//W3C//DTD SVG 1.1//EN" "http://www.w3.org/Graphics/SVG/1.1/DTD/svg11.dtd">
<svg width="100%" height="100%" viewBox="0 0 1280 1050" version="1.1" xmlns="http://www.w3.org/2000/svg" xmlns:xlink="http://www.w3.org/1999/xlink" xml:space="preserve" xmlns:serif="http://www.serif.com/" style="fill-rule:evenodd;clip-rule:evenodd;stroke-linecap:square;stroke-miterlimit:1.5;">
    <g transform="matrix(1,0,0,1,-25609,-1086)">
        <g id="P17_MerkMiddelen_Patroon4_Lichtblauw_RGB" transform="matrix(1,0,0,1,-0.36678,-0.885609)">
            <rect x="25609.4" y="1086.89" width="1280" height="1049.82" style="fill:none;"/>
            <clipPath id="_clip1">
                <rect x="25609.4" y="1086.89" width="1280" height="1049.82"/>
            </clipPath>
            <g clip-path="url(#_clip1)">
                <g transform="matrix(0.249263,0,0,0.258054,22200.7,1965.85)">
                    <rect x="13676.3" y="-3402.71" width="5135.14" height="4068.23" style="fill:rgb(88,170,224);"/>
                    <clipPath id="_clip2">
                        <rect x="13676.3" y="-3402.71" width="5135.14" height="4068.23"/>
                    </clipPath>
                    <g clip-path="url(#_clip2)">
                        <g transform="matrix(1.26516,0,0,1.22206,-4245.16,-3930.5)">
                            <g transform="matrix(7.57231,0,0,7.57231,-31234.5,-16193)">
                                <path d="M6045.52,2612.51C6064.59,2615.35 6079.28,2631.79 6079.28,2651.64C6079.28,2653.71 6079.07,2655.73 6078.76,2657.72C6059.69,2654.88 6045.01,2638.45 6045.01,2618.6C6045.01,2616.53 6045.21,2614.5 6045.52,2612.51Z" style="fill:none;stroke:black;stroke-opacity:0.12;stroke-width:2.03px;"/>
                            </g>
                            <g transform="matrix(7.57231,0,0,7.57231,-31234.5,-16650.7)">
                                <path d="M6045.52,2612.51C6064.59,2615.35 6079.28,2631.79 6079.28,2651.64C6079.28,2653.71 6079.07,2655.73 6078.76,2657.72C6059.69,2654.88 6045.01,2638.45 6045.01,2618.6C6045.01,2616.53 6045.21,2614.5 6045.52,2612.51Z" style="fill:none;stroke:black;stroke-opacity:0.12;stroke-width:2.03px;"/>
                            </g>
                            <g transform="matrix(7.57231,0,0,7.57231,-31234.5,-17129.3)">
                                <path d="M6045.52,2612.51C6064.59,2615.35 6079.28,2631.79 6079.28,2651.64C6079.28,2653.71 6079.07,2655.73 6078.76,2657.72C6059.69,2654.88 6045.01,2638.45 6045.01,2618.6C6045.01,2616.53 6045.21,2614.5 6045.52,2612.51Z" style="fill:none;stroke:black;stroke-opacity:0.12;stroke-width:2.03px;"/>
                            </g>
                            <g transform="matrix(7.57231,0,0,7.57231,-31234.5,-17607.8)">
                                <path d="M6045.52,2612.51C6064.59,2615.35 6079.28,2631.79 6079.28,2651.64C6079.28,2653.71 6079.07,2655.73 6078.76,2657.72C6059.69,2654.88 6045.01,2638.45 6045.01,2618.6C6045.01,2616.53 6045.21,2614.5 6045.52,2612.51Z" style="fill:none;stroke:black;stroke-opacity:0.12;stroke-width:2.03px;"/>
                            </g>
                            <g transform="matrix(7.57231,0,0,7.57231,-31234.5,-18086.4)">
                                <path d="M6045.52,2612.51C6064.59,2615.35 6079.28,2631.79 6079.28,2651.64C6079.28,2653.71 6079.07,2655.73 6078.76,2657.72C6059.69,2654.88 6045.01,2638.45 6045.01,2618.6C6045.01,2616.53 6045.21,2614.5 6045.52,2612.51Z" style="fill:none;stroke:black;stroke-opacity:0.12;stroke-width:2.03px;"/>
                            </g>
                            <g transform="matrix(7.57231,0,0,7.57231,-31234.5,-18564.9)">
                                <path d="M6045.52,2612.51C6064.59,2615.35 6079.28,2631.79 6079.28,2651.64C6079.28,2653.71 6079.07,2655.73 6078.76,2657.72C6059.69,2654.88 6045.01,2638.45 6045.01,2618.6C6045.01,2616.53 6045.21,2614.5 6045.52,2612.51Z" style="fill:none;stroke:black;stroke-opacity:0.12;stroke-width:2.03px;"/>
                            </g>
                            <g transform="matrix(7.57231,0,0,7.57231,-31234.5,-19043.5)">
                                <path d="M6045.52,2612.51C6064.59,2615.35 6079.28,2631.79 6079.28,2651.64C6079.28,2653.71 6079.07,2655.73 6078.76,2657.72C6059.69,2654.88 6045.01,2638.45 6045.01,2618.6C6045.01,2616.53 6045.21,2614.5 6045.52,2612.51Z" style="fill:none;stroke:black;stroke-opacity:0.12;stroke-width:2.03px;"/>
                            </g>
                            <g transform="matrix(7.57231,0,0,7.57231,-31234.5,-19522)">
                                <path d="M6045.52,2612.51C6064.59,2615.35 6079.28,2631.79 6079.28,2651.64C6079.28,2653.71 6079.07,2655.73 6078.76,2657.72C6059.69,2654.88 6045.01,2638.45 6045.01,2618.6C6045.01,2616.53 6045.21,2614.5 6045.52,2612.51Z" style="fill:none;stroke:black;stroke-opacity:0.12;stroke-width:2.03px;"/>
                            </g>
                            <g transform="matrix(7.57231,0,0,7.57231,-30557.7,-16193)">
                                <path d="M6045.52,2612.51C6064.59,2615.35 6079.28,2631.79 6079.28,2651.64C6079.28,2653.71 6079.07,2655.73 6078.76,2657.72C6059.69,2654.88 6045.01,2638.45 6045.01,2618.6C6045.01,2616.53 6045.21,2614.5 6045.52,2612.51Z" style="fill:none;stroke:black;stroke-opacity:0.12;stroke-width:2.03px;"/>
                            </g>
                            <g transform="matrix(7.57231,0,0,7.57231,-30557.7,-16650.7)">
                                <path d="M6045.52,2612.51C6064.59,2615.35 6079.28,2631.79 6079.28,2651.64C6079.28,2653.71 6079.07,2655.73 6078.76,2657.72C6059.69,2654.88 6045.01,2638.45 6045.01,2618.6C6045.01,2616.53 6045.21,2614.5 6045.52,2612.51Z" style="fill:none;stroke:black;stroke-opacity:0.12;stroke-width:2.03px;"/>
                            </g>
                            <g transform="matrix(7.57231,0,0,7.57231,-30557.7,-17129.3)">
                                <path d="M6045.52,2612.51C6064.59,2615.35 6079.28,2631.79 6079.28,2651.64C6079.28,2653.71 6079.07,2655.73 6078.76,2657.72C6059.69,2654.88 6045.01,2638.45 6045.01,2618.6C6045.01,2616.53 6045.21,2614.5 6045.52,2612.51Z" style="fill:none;stroke:black;stroke-opacity:0.12;stroke-width:2.03px;"/>
                            </g>
                            <g transform="matrix(7.57231,0,0,7.57231,-30557.7,-17607.8)">
                                <path d="M6045.52,2612.51C6064.59,2615.35 6079.28,2631.79 6079.28,2651.64C6079.28,2653.71 6079.07,2655.73 6078.76,2657.72C6059.69,2654.88 6045.01,2638.45 6045.01,2618.6C6045.01,2616.53 6045.21,2614.5 6045.52,2612.51Z" style="fill:none;stroke:black;stroke-opacity:0.12;stroke-width:2.03px;"/>
                            </g>
                            <g transform="matrix(7.57231,0,0,7.57231,-30557.7,-18086.4)">
                                <path d="M6045.52,2612.51C6064.59,2615.35 6079.28,2631.79 6079.28,2651.64C6079.28,2653.71 6079.07,2655.73 6078.76,2657.72C6059.69,2654.88 6045.01,2638.45 6045.01,2618.6C6045.01,2616.53 6045.21,2614.5 6045.52,2612.51Z" style="fill:none;stroke:black;stroke-opacity:0.12;stroke-width:2.03px;"/>
                            </g>
                            <g transform="matrix(7.57231,0,0,7.57231,-30557.7,-18564.9)">
                                <path d="M6045.52,2612.51C6064.59,2615.35 6079.28,2631.79 6079.28,2651.64C6079.28,2653.71 6079.07,2655.73 6078.76,2657.72C6059.69,2654.88 6045.01,2638.45 6045.01,2618.6C6045.01,2616.53 6045.21,2614.5 6045.52,2612.51Z" style="fill:none;stroke:black;stroke-opacity:0.12;stroke-width:2.03px;"/>
                            </g>
                            <g transform="matrix(7.57231,0,0,7.57231,-30557.7,-19043.5)">
                                <path d="M6045.52,2612.51C6064.59,2615.35 6079.28,2631.79 6079.28,2651.64C6079.28,2653.71 6079.07,2655.73 6078.76,2657.72C6059.69,2654.88 6045.01,2638.45 6045.01,2618.6C6045.01,2616.53 6045.21,2614.5 6045.52,2612.51Z" style="fill:none;stroke:black;stroke-opacity:0.12;stroke-width:2.03px;"/>
                            </g>
                            <g transform="matrix(7.57231,0,0,7.57231,-30557.7,-19522)">
                                <path d="M6045.52,2612.51C6064.59,2615.35 6079.28,2631.79 6079.28,2651.64C6079.28,2653.71 6079.07,2655.73 6078.76,2657.72C6059.69,2654.88 6045.01,2638.45 6045.01,2618.6C6045.01,2616.53 6045.21,2614.5 6045.52,2612.51Z" style="fill:none;stroke:black;stroke-opacity:0.12;stroke-width:2.03px;"/>
                            </g>
                            <g transform="matrix(7.57231,0,0,7.57231,-29881,-16193)">
                                <path d="M6045.52,2612.51C6064.59,2615.35 6079.28,2631.79 6079.28,2651.64C6079.28,2653.71 6079.07,2655.73 6078.76,2657.72C6059.69,2654.88 6045.01,2638.45 6045.01,2618.6C6045.01,2616.53 6045.21,2614.5 6045.52,2612.51Z" style="fill:none;stroke:black;stroke-opacity:0.12;stroke-width:2.03px;"/>
                            </g>
                            <g transform="matrix(7.57231,0,0,7.57231,-29881,-16650.7)">
                                <path d="M6045.52,2612.51C6064.59,2615.35 6079.28,2631.79 6079.28,2651.64C6079.28,2653.71 6079.07,2655.73 6078.76,2657.72C6059.69,2654.88 6045.01,2638.45 6045.01,2618.6C6045.01,2616.53 6045.21,2614.5 6045.52,2612.51Z" style="fill:none;stroke:black;stroke-opacity:0.12;stroke-width:2.03px;"/>
                            </g>
                            <g transform="matrix(7.57231,0,0,7.57231,-29881,-17129.3)">
                                <path d="M6045.52,2612.51C6064.59,2615.35 6079.28,2631.79 6079.28,2651.64C6079.28,2653.71 6079.07,2655.73 6078.76,2657.72C6059.69,2654.88 6045.01,2638.45 6045.01,2618.6C6045.01,2616.53 6045.21,2614.5 6045.52,2612.51Z" style="fill:none;stroke:black;stroke-opacity:0.12;stroke-width:2.03px;"/>
                            </g>
                            <g transform="matrix(7.57231,0,0,7.57231,-29881,-17607.8)">
                                <path d="M6045.52,2612.51C6064.59,2615.35 6079.28,2631.79 6079.28,2651.64C6079.28,2653.71 6079.07,2655.73 6078.76,2657.72C6059.69,2654.88 6045.01,2638.45 6045.01,2618.6C6045.01,2616.53 6045.21,2614.5 6045.52,2612.51Z" style="fill:none;stroke:black;stroke-opacity:0.12;stroke-width:2.03px;"/>
                            </g>
                            <g transform="matrix(7.57231,0,0,7.57231,-29881,-18086.4)">
                                <path d="M6045.52,2612.51C6064.59,2615.35 6079.28,2631.79 6079.28,2651.64C6079.28,2653.71 6079.07,2655.73 6078.76,2657.72C6059.69,2654.88 6045.01,2638.45 6045.01,2618.6C6045.01,2616.53 6045.21,2614.5 6045.52,2612.51Z" style="fill:none;stroke:black;stroke-opacity:0.12;stroke-width:2.03px;"/>
                            </g>
                            <g transform="matrix(7.57231,0,0,7.57231,-29881,-18564.9)">
                                <path d="M6045.52,2612.51C6064.59,2615.35 6079.28,2631.79 6079.28,2651.64C6079.28,2653.71 6079.07,2655.73 6078.76,2657.72C6059.69,2654.88 6045.01,2638.45 6045.01,2618.6C6045.01,2616.53 6045.21,2614.5 6045.52,2612.51Z" style="fill:none;stroke:black;stroke-opacity:0.12;stroke-width:2.03px;"/>
                            </g>
                            <g transform="matrix(7.57231,0,0,7.57231,-29881,-19043.5)">
                                <path d="M6045.52,2612.51C6064.59,2615.35 6079.28,2631.79 6079.28,2651.64C6079.28,2653.71 6079.07,2655.73 6078.76,2657.72C6059.69,2654.88 6045.01,2638.45 6045.01,2618.6C6045.01,2616.53 6045.21,2614.5 6045.52,2612.51Z" style="fill:none;stroke:black;stroke-opacity:0.12;stroke-width:2.03px;"/>
                            </g>
                            <g transform="matrix(7.57231,0,0,7.57231,-29881,-19522)">
                                <path d="M6045.52,2612.51C6064.59,2615.35 6079.28,2631.79 6079.28,2651.64C6079.28,2653.71 6079.07,2655.73 6078.76,2657.72C6059.69,2654.88 6045.01,2638.45 6045.01,2618.6C6045.01,2616.53 6045.21,2614.5 6045.52,2612.51Z" style="fill:none;stroke:black;stroke-opacity:0.12;stroke-width:2.03px;"/>
                            </g>
                            <g transform="matrix(7.57231,0,0,7.57231,-29204.2,-16193)">
                                <path d="M6045.52,2612.51C6064.59,2615.35 6079.28,2631.79 6079.28,2651.64C6079.28,2653.71 6079.07,2655.73 6078.76,2657.72C6059.69,2654.88 6045.01,2638.45 6045.01,2618.6C6045.01,2616.53 6045.21,2614.5 6045.52,2612.51Z" style="fill:none;stroke:black;stroke-opacity:0.12;stroke-width:2.03px;"/>
                            </g>
                            <g transform="matrix(7.57231,0,0,7.57231,-29204.2,-16650.7)">
                                <path d="M6045.52,2612.51C6064.59,2615.35 6079.28,2631.79 6079.28,2651.64C6079.28,2653.71 6079.07,2655.73 6078.76,2657.72C6059.69,2654.88 6045.01,2638.45 6045.01,2618.6C6045.01,2616.53 6045.21,2614.5 6045.52,2612.51Z" style="fill:none;stroke:black;stroke-opacity:0.12;stroke-width:2.03px;"/>
                            </g>
                            <g transform="matrix(7.57231,0,0,7.57231,-29204.2,-17129.3)">
                                <path d="M6045.52,2612.51C6064.59,2615.35 6079.28,2631.79 6079.28,2651.64C6079.28,2653.71 6079.07,2655.73 6078.76,2657.72C6059.69,2654.88 6045.01,2638.45 6045.01,2618.6C6045.01,2616.53 6045.21,2614.5 6045.52,2612.51Z" style="fill:none;stroke:black;stroke-opacity:0.12;stroke-width:2.03px;"/>
                            </g>
                            <g transform="matrix(7.57231,0,0,7.57231,-29204.2,-17607.8)">
                                <path d="M6045.52,2612.51C6064.59,2615.35 6079.28,2631.79 6079.28,2651.64C6079.28,2653.71 6079.07,2655.73 6078.76,2657.72C6059.69,2654.88 6045.01,2638.45 6045.01,2618.6C6045.01,2616.53 6045.21,2614.5 6045.52,2612.51Z" style="fill:none;stroke:black;stroke-opacity:0.12;stroke-width:2.03px;"/>
                            </g>
                            <g transform="matrix(7.57231,0,0,7.57231,-29204.2,-18086.4)">
                                <path d="M6045.52,2612.51C6064.59,2615.35 6079.28,2631.79 6079.28,2651.64C6079.28,2653.71 6079.07,2655.73 6078.76,2657.72C6059.69,2654.88 6045.01,2638.45 6045.01,2618.6C6045.01,2616.53 6045.21,2614.5 6045.52,2612.51Z" style="fill:none;stroke:black;stroke-opacity:0.12;stroke-width:2.03px;"/>
                            </g>
                            <g transform="matrix(7.57231,0,0,7.57231,-29204.2,-18564.9)">
                                <path d="M6045.52,2612.51C6064.59,2615.35 6079.28,2631.79 6079.28,2651.64C6079.28,2653.71 6079.07,2655.73 6078.76,2657.72C6059.69,2654.88 6045.01,2638.45 6045.01,2618.6C6045.01,2616.53 6045.21,2614.5 6045.52,2612.51Z" style="fill:none;stroke:black;stroke-opacity:0.12;stroke-width:2.03px;"/>
                            </g>
                            <g transform="matrix(7.57231,0,0,7.57231,-29204.2,-19043.5)">
                                <path d="M6045.52,2612.51C6064.59,2615.35 6079.28,2631.79 6079.28,2651.64C6079.28,2653.71 6079.07,2655.73 6078.76,2657.72C6059.69,2654.88 6045.01,2638.45 6045.01,2618.6C6045.01,2616.53 6045.21,2614.5 6045.52,2612.51Z" style="fill:none;stroke:black;stroke-opacity:0.12;stroke-width:2.03px;"/>
                            </g>
                            <g transform="matrix(7.57231,0,0,7.57231,-29204.2,-19522)">
                                <path d="M6045.52,2612.51C6064.59,2615.35 6079.28,2631.79 6079.28,2651.64C6079.28,2653.71 6079.07,2655.73 6078.76,2657.72C6059.69,2654.88 6045.01,2638.45 6045.01,2618.6C6045.01,2616.53 6045.21,2614.5 6045.52,2612.51Z" style="fill:none;stroke:black;stroke-opacity:0.12;stroke-width:2.03px;"/>
                            </g>
                            <g transform="matrix(7.57231,0,0,7.57231,-28527.4,-16193)">
                                <path d="M6045.52,2612.51C6064.59,2615.35 6079.28,2631.79 6079.28,2651.64C6079.28,2653.71 6079.07,2655.73 6078.76,2657.72C6059.69,2654.88 6045.01,2638.45 6045.01,2618.6C6045.01,2616.53 6045.21,2614.5 6045.52,2612.51Z" style="fill:none;stroke:black;stroke-opacity:0.12;stroke-width:2.03px;"/>
                            </g>
                            <g transform="matrix(7.57231,0,0,7.57231,-28527.4,-16650.7)">
                                <path d="M6045.52,2612.51C6064.59,2615.35 6079.28,2631.79 6079.28,2651.64C6079.28,2653.71 6079.07,2655.73 6078.76,2657.72C6059.69,2654.88 6045.01,2638.45 6045.01,2618.6C6045.01,2616.53 6045.21,2614.5 6045.52,2612.51Z" style="fill:none;stroke:black;stroke-opacity:0.12;stroke-width:2.03px;"/>
                            </g>
                            <g transform="matrix(7.57231,0,0,7.57231,-28527.4,-17129.3)">
                                <path d="M6045.52,2612.51C6064.59,2615.35 6079.28,2631.79 6079.28,2651.64C6079.28,2653.71 6079.07,2655.73 6078.76,2657.72C6059.69,2654.88 6045.01,2638.45 6045.01,2618.6C6045.01,2616.53 6045.21,2614.5 6045.52,2612.51Z" style="fill:none;stroke:black;stroke-opacity:0.12;stroke-width:2.03px;"/>
                            </g>
                            <g transform="matrix(7.57231,0,0,7.57231,-28527.4,-17607.8)">
                                <path d="M6045.52,2612.51C6064.59,2615.35 6079.28,2631.79 6079.28,2651.64C6079.28,2653.71 6079.07,2655.73 6078.76,2657.72C6059.69,2654.88 6045.01,2638.45 6045.01,2618.6C6045.01,2616.53 6045.21,2614.5 6045.52,2612.51Z" style="fill:none;stroke:black;stroke-opacity:0.12;stroke-width:2.03px;"/>
                            </g>
                            <g transform="matrix(7.57231,0,0,7.57231,-28527.4,-18086.4)">
                                <path d="M6045.52,2612.51C6064.59,2615.35 6079.28,2631.79 6079.28,2651.64C6079.28,2653.71 6079.07,2655.73 6078.76,2657.72C6059.69,2654.88 6045.01,2638.45 6045.01,2618.6C6045.01,2616.53 6045.21,2614.5 6045.52,2612.51Z" style="fill:none;stroke:black;stroke-opacity:0.12;stroke-width:2.03px;"/>
                            </g>
                            <g transform="matrix(7.57231,0,0,7.57231,-28527.4,-18564.9)">
                                <path d="M6045.52,2612.51C6064.59,2615.35 6079.28,2631.79 6079.28,2651.64C6079.28,2653.71 6079.07,2655.73 6078.76,2657.72C6059.69,2654.88 6045.01,2638.45 6045.01,2618.6C6045.01,2616.53 6045.21,2614.5 6045.52,2612.51Z" style="fill:none;stroke:black;stroke-opacity:0.12;stroke-width:2.03px;"/>
                            </g>
                            <g transform="matrix(7.57231,0,0,7.57231,-28527.4,-19043.5)">
                                <path d="M6045.52,2612.51C6064.59,2615.35 6079.28,2631.79 6079.28,2651.64C6079.28,2653.71 6079.07,2655.73 6078.76,2657.72C6059.69,2654.88 6045.01,2638.45 6045.01,2618.6C6045.01,2616.53 6045.21,2614.5 6045.52,2612.51Z" style="fill:none;stroke:black;stroke-opacity:0.12;stroke-width:2.03px;"/>
                            </g>
                            <g transform="matrix(7.57231,0,0,7.57231,-28527.4,-19522)">
                                <path d="M6045.52,2612.51C6064.59,2615.35 6079.28,2631.79 6079.28,2651.64C6079.28,2653.71 6079.07,2655.73 6078.76,2657.72C6059.69,2654.88 6045.01,2638.45 6045.01,2618.6C6045.01,2616.53 6045.21,2614.5 6045.52,2612.51Z" style="fill:none;stroke:black;stroke-opacity:0.12;stroke-width:2.03px;"/>
                            </g>
                            <g transform="matrix(7.57231,0,0,7.57231,-27850.7,-16193)">
                                <path d="M6045.52,2612.51C6064.59,2615.35 6079.28,2631.79 6079.28,2651.64C6079.28,2653.71 6079.07,2655.73 6078.76,2657.72C6059.69,2654.88 6045.01,2638.45 6045.01,2618.6C6045.01,2616.53 6045.21,2614.5 6045.52,2612.51Z" style="fill:none;stroke:black;stroke-opacity:0.12;stroke-width:2.03px;"/>
                            </g>
                            <g transform="matrix(7.57231,0,0,7.57231,-27850.7,-16650.7)">
                                <path d="M6045.52,2612.51C6064.59,2615.35 6079.28,2631.79 6079.28,2651.64C6079.28,2653.71 6079.07,2655.73 6078.76,2657.72C6059.69,2654.88 6045.01,2638.45 6045.01,2618.6C6045.01,2616.53 6045.21,2614.5 6045.52,2612.51Z" style="fill:none;stroke:black;stroke-opacity:0.12;stroke-width:2.03px;"/>
                            </g>
                            <g transform="matrix(7.57231,0,0,7.57231,-27850.7,-17129.3)">
                                <path d="M6045.52,2612.51C6064.59,2615.35 6079.28,2631.79 6079.28,2651.64C6079.28,2653.71 6079.07,2655.73 6078.76,2657.72C6059.69,2654.88 6045.01,2638.45 6045.01,2618.6C6045.01,2616.53 6045.21,2614.5 6045.52,2612.51Z" style="fill:none;stroke:black;stroke-opacity:0.12;stroke-width:2.03px;"/>
                            </g>
                            <g transform="matrix(7.57231,0,0,7.57231,-27850.7,-17607.8)">
                                <path d="M6045.52,2612.51C6064.59,2615.35 6079.28,2631.79 6079.28,2651.64C6079.28,2653.71 6079.07,2655.73 6078.76,2657.72C6059.69,2654.88 6045.01,2638.45 6045.01,2618.6C6045.01,2616.53 6045.21,2614.5 6045.52,2612.51Z" style="fill:none;stroke:black;stroke-opacity:0.12;stroke-width:2.03px;"/>
                            </g>
                            <g transform="matrix(7.57231,0,0,7.57231,-27850.7,-18086.4)">
                                <path d="M6045.52,2612.51C6064.59,2615.35 6079.28,2631.79 6079.28,2651.64C6079.28,2653.71 6079.07,2655.73 6078.76,2657.72C6059.69,2654.88 6045.01,2638.45 6045.01,2618.6C6045.01,2616.53 6045.21,2614.5 6045.52,2612.51Z" style="fill:none;stroke:black;stroke-opacity:0.12;stroke-width:2.03px;"/>
                            </g>
                            <g transform="matrix(7.57231,0,0,7.57231,-27850.7,-18564.9)">
                                <path d="M6045.52,2612.51C6064.59,2615.35 6079.28,2631.79 6079.28,2651.64C6079.28,2653.71 6079.07,2655.73 6078.76,2657.72C6059.69,2654.88 6045.01,2638.45 6045.01,2618.6C6045.01,2616.53 6045.21,2614.5 6045.52,2612.51Z" style="fill:none;stroke:black;stroke-opacity:0.12;stroke-width:2.03px;"/>
                            </g>
                            <g transform="matrix(7.57231,0,0,7.57231,-27850.7,-19043.5)">
                                <path d="M6045.52,2612.51C6064.59,2615.35 6079.28,2631.79 6079.28,2651.64C6079.28,2653.71 6079.07,2655.73 6078.76,2657.72C6059.69,2654.88 6045.01,2638.45 6045.01,2618.6C6045.01,2616.53 6045.21,2614.5 6045.52,2612.51Z" style="fill:none;stroke:black;stroke-opacity:0.12;stroke-width:2.03px;"/>
                            </g>
                            <g transform="matrix(7.57231,0,0,7.57231,-27850.7,-19522)">
                                <path d="M6045.52,2612.51C6064.59,2615.35 6079.28,2631.79 6079.28,2651.64C6079.28,2653.71 6079.07,2655.73 6078.76,2657.72C6059.69,2654.88 6045.01,2638.45 6045.01,2618.6C6045.01,2616.53 6045.21,2614.5 6045.52,2612.51Z" style="fill:none;stroke:black;stroke-opacity:0.12;stroke-width:2.03px;"/>
                            </g>
                            <g transform="matrix(7.57231,0,0,7.57231,-31911.3,-16193)">
                                <path d="M6124.2,2618.6C6124.2,2638.45 6109.51,2654.88 6090.44,2657.72C6090.13,2655.73 6089.93,2653.71 6089.93,2651.64C6089.93,2631.79 6104.61,2615.35 6123.68,2612.52C6123.99,2614.5 6124.2,2616.53 6124.2,2618.6Z" style="fill:none;stroke:black;stroke-opacity:0.12;stroke-width:2.03px;"/>
                            </g>
                            <g transform="matrix(7.57231,0,0,7.57231,-31911.3,-16650.7)">
                                <path d="M6124.2,2618.6C6124.2,2638.45 6109.51,2654.88 6090.44,2657.72C6090.13,2655.73 6089.93,2653.71 6089.93,2651.64C6089.93,2631.79 6104.61,2615.35 6123.68,2612.52C6123.99,2614.5 6124.2,2616.53 6124.2,2618.6Z" style="fill:none;stroke:black;stroke-opacity:0.12;stroke-width:2.03px;"/>
                            </g>
                            <g transform="matrix(7.57231,0,0,7.57231,-31911.3,-17129.3)">
                                <path d="M6124.2,2618.6C6124.2,2638.45 6109.51,2654.88 6090.44,2657.72C6090.13,2655.73 6089.93,2653.71 6089.93,2651.64C6089.93,2631.79 6104.61,2615.35 6123.68,2612.52C6123.99,2614.5 6124.2,2616.53 6124.2,2618.6Z" style="fill:none;stroke:black;stroke-opacity:0.12;stroke-width:2.03px;"/>
                            </g>
                            <g transform="matrix(7.57231,0,0,7.57231,-31911.3,-17607.8)">
                                <path d="M6124.2,2618.6C6124.2,2638.45 6109.51,2654.88 6090.44,2657.72C6090.13,2655.73 6089.93,2653.71 6089.93,2651.64C6089.93,2631.79 6104.61,2615.35 6123.68,2612.52C6123.99,2614.5 6124.2,2616.53 6124.2,2618.6Z" style="fill:none;stroke:black;stroke-opacity:0.12;stroke-width:2.03px;"/>
                            </g>
                            <g transform="matrix(7.57231,0,0,7.57231,-31911.3,-18086.4)">
                                <path d="M6124.2,2618.6C6124.2,2638.45 6109.51,2654.88 6090.44,2657.72C6090.13,2655.73 6089.93,2653.71 6089.93,2651.64C6089.93,2631.79 6104.61,2615.35 6123.68,2612.52C6123.99,2614.5 6124.2,2616.53 6124.2,2618.6Z" style="fill:none;stroke:black;stroke-opacity:0.12;stroke-width:2.03px;"/>
                            </g>
                            <g transform="matrix(7.57231,0,0,7.57231,-31911.3,-18564.9)">
                                <path d="M6124.2,2618.6C6124.2,2638.45 6109.51,2654.88 6090.44,2657.72C6090.13,2655.73 6089.93,2653.71 6089.93,2651.64C6089.93,2631.79 6104.61,2615.35 6123.68,2612.52C6123.99,2614.5 6124.2,2616.53 6124.2,2618.6Z" style="fill:none;stroke:black;stroke-opacity:0.12;stroke-width:2.03px;"/>
                            </g>
                            <g transform="matrix(7.57231,0,0,7.57231,-31911.3,-19043.5)">
                                <path d="M6124.2,2618.6C6124.2,2638.45 6109.51,2654.88 6090.44,2657.72C6090.13,2655.73 6089.93,2653.71 6089.93,2651.64C6089.93,2631.79 6104.61,2615.35 6123.68,2612.52C6123.99,2614.5 6124.2,2616.53 6124.2,2618.6Z" style="fill:none;stroke:black;stroke-opacity:0.12;stroke-width:2.03px;"/>
                            </g>
                            <g transform="matrix(7.57231,0,0,7.57231,-31911.3,-19522)">
                                <path d="M6124.2,2618.6C6124.2,2638.45 6109.51,2654.88 6090.44,2657.72C6090.13,2655.73 6089.93,2653.71 6089.93,2651.64C6089.93,2631.79 6104.61,2615.35 6123.68,2612.52C6123.99,2614.5 6124.2,2616.53 6124.2,2618.6Z" style="fill:none;stroke:black;stroke-opacity:0.12;stroke-width:2.03px;"/>
                            </g>
                            <g transform="matrix(7.57231,0,0,7.57231,-31234.5,-16193)">
                                <path d="M6124.2,2618.6C6124.2,2638.45 6109.51,2654.88 6090.44,2657.72C6090.13,2655.73 6089.93,2653.71 6089.93,2651.64C6089.93,2631.79 6104.61,2615.35 6123.68,2612.52C6123.99,2614.5 6124.2,2616.53 6124.2,2618.6Z" style="fill:none;stroke:black;stroke-opacity:0.12;stroke-width:2.03px;"/>
                            </g>
                            <g transform="matrix(7.57231,0,0,7.57231,-31234.5,-16650.7)">
                                <path d="M6124.2,2618.6C6124.2,2638.45 6109.51,2654.88 6090.44,2657.72C6090.13,2655.73 6089.93,2653.71 6089.93,2651.64C6089.93,2631.79 6104.61,2615.35 6123.68,2612.52C6123.99,2614.5 6124.2,2616.53 6124.2,2618.6Z" style="fill:none;stroke:black;stroke-opacity:0.12;stroke-width:2.03px;"/>
                            </g>
                            <g transform="matrix(7.57231,0,0,7.57231,-31234.5,-17129.3)">
                                <path d="M6124.2,2618.6C6124.2,2638.45 6109.51,2654.88 6090.44,2657.72C6090.13,2655.73 6089.93,2653.71 6089.93,2651.64C6089.93,2631.79 6104.61,2615.35 6123.68,2612.52C6123.99,2614.5 6124.2,2616.53 6124.2,2618.6Z" style="fill:none;stroke:black;stroke-opacity:0.12;stroke-width:2.03px;"/>
                            </g>
                            <g transform="matrix(7.57231,0,0,7.57231,-31234.5,-17607.8)">
                                <path d="M6124.2,2618.6C6124.2,2638.45 6109.51,2654.88 6090.44,2657.72C6090.13,2655.73 6089.93,2653.71 6089.93,2651.64C6089.93,2631.79 6104.61,2615.35 6123.68,2612.52C6123.99,2614.5 6124.2,2616.53 6124.2,2618.6Z" style="fill:none;stroke:black;stroke-opacity:0.12;stroke-width:2.03px;"/>
                            </g>
                            <g transform="matrix(7.57231,0,0,7.57231,-31234.5,-18086.4)">
                                <path d="M6124.2,2618.6C6124.2,2638.45 6109.51,2654.88 6090.44,2657.72C6090.13,2655.73 6089.93,2653.71 6089.93,2651.64C6089.93,2631.79 6104.61,2615.35 6123.68,2612.52C6123.99,2614.5 6124.2,2616.53 6124.2,2618.6Z" style="fill:none;stroke:black;stroke-opacity:0.12;stroke-width:2.03px;"/>
                            </g>
                            <g transform="matrix(7.57231,0,0,7.57231,-31234.5,-18564.9)">
                                <path d="M6124.2,2618.6C6124.2,2638.45 6109.51,2654.88 6090.44,2657.72C6090.13,2655.73 6089.93,2653.71 6089.93,2651.64C6089.93,2631.79 6104.61,2615.35 6123.68,2612.52C6123.99,2614.5 6124.2,2616.53 6124.2,2618.6Z" style="fill:none;stroke:black;stroke-opacity:0.12;stroke-width:2.03px;"/>
                            </g>
                            <g transform="matrix(7.57231,0,0,7.57231,-31234.5,-19043.5)">
                                <path d="M6124.2,2618.6C6124.2,2638.45 6109.51,2654.88 6090.44,2657.72C6090.13,2655.73 6089.93,2653.71 6089.93,2651.64C6089.93,2631.79 6104.61,2615.35 6123.68,2612.52C6123.99,2614.5 6124.2,2616.53 6124.2,2618.6Z" style="fill:none;stroke:black;stroke-opacity:0.12;stroke-width:2.03px;"/>
                            </g>
                            <g transform="matrix(7.57231,0,0,7.57231,-31234.5,-19522)">
                                <path d="M6124.2,2618.6C6124.2,2638.45 6109.51,2654.88 6090.44,2657.72C6090.13,2655.73 6089.93,2653.71 6089.93,2651.64C6089.93,2631.79 6104.61,2615.35 6123.68,2612.52C6123.99,2614.5 6124.2,2616.53 6124.2,2618.6Z" style="fill:none;stroke:black;stroke-opacity:0.12;stroke-width:2.03px;"/>
                            </g>
                            <g transform="matrix(7.57231,0,0,7.57231,-30557.7,-16193)">
                                <path d="M6124.2,2618.6C6124.2,2638.45 6109.51,2654.88 6090.44,2657.72C6090.13,2655.73 6089.93,2653.71 6089.93,2651.64C6089.93,2631.79 6104.61,2615.35 6123.68,2612.52C6123.99,2614.5 6124.2,2616.53 6124.2,2618.6Z" style="fill:none;stroke:black;stroke-opacity:0.12;stroke-width:2.03px;"/>
                            </g>
                            <g transform="matrix(7.57231,0,0,7.57231,-30557.7,-16650.7)">
                                <path d="M6124.2,2618.6C6124.2,2638.45 6109.51,2654.88 6090.44,2657.72C6090.13,2655.73 6089.93,2653.71 6089.93,2651.64C6089.93,2631.79 6104.61,2615.35 6123.68,2612.52C6123.99,2614.5 6124.2,2616.53 6124.2,2618.6Z" style="fill:none;stroke:black;stroke-opacity:0.12;stroke-width:2.03px;"/>
                            </g>
                            <g transform="matrix(7.57231,0,0,7.57231,-30557.7,-17129.3)">
                                <path d="M6124.2,2618.6C6124.2,2638.45 6109.51,2654.88 6090.44,2657.72C6090.13,2655.73 6089.93,2653.71 6089.93,2651.64C6089.93,2631.79 6104.61,2615.35 6123.68,2612.52C6123.99,2614.5 6124.2,2616.53 6124.2,2618.6Z" style="fill:none;stroke:black;stroke-opacity:0.12;stroke-width:2.03px;"/>
                            </g>
                            <g transform="matrix(7.57231,0,0,7.57231,-30557.7,-17607.8)">
                                <path d="M6124.2,2618.6C6124.2,2638.45 6109.51,2654.88 6090.44,2657.72C6090.13,2655.73 6089.93,2653.71 6089.93,2651.64C6089.93,2631.79 6104.61,2615.35 6123.68,2612.52C6123.99,2614.5 6124.2,2616.53 6124.2,2618.6Z" style="fill:none;stroke:black;stroke-opacity:0.12;stroke-width:2.03px;"/>
                            </g>
                            <g transform="matrix(7.57231,0,0,7.57231,-30557.7,-18086.4)">
                                <path d="M6124.2,2618.6C6124.2,2638.45 6109.51,2654.88 6090.44,2657.72C6090.13,2655.73 6089.93,2653.71 6089.93,2651.64C6089.93,2631.79 6104.61,2615.35 6123.68,2612.52C6123.99,2614.5 6124.2,2616.53 6124.2,2618.6Z" style="fill:none;stroke:black;stroke-opacity:0.12;stroke-width:2.03px;"/>
                            </g>
                            <g transform="matrix(7.57231,0,0,7.57231,-30557.7,-18564.9)">
                                <path d="M6124.2,2618.6C6124.2,2638.45 6109.51,2654.88 6090.44,2657.72C6090.13,2655.73 6089.93,2653.71 6089.93,2651.64C6089.93,2631.79 6104.61,2615.35 6123.68,2612.52C6123.99,2614.5 6124.2,2616.53 6124.2,2618.6Z" style="fill:none;stroke:black;stroke-opacity:0.12;stroke-width:2.03px;"/>
                            </g>
                            <g transform="matrix(7.57231,0,0,7.57231,-30557.7,-19043.5)">
                                <path d="M6124.2,2618.6C6124.2,2638.45 6109.51,2654.88 6090.44,2657.72C6090.13,2655.73 6089.93,2653.71 6089.93,2651.64C6089.93,2631.79 6104.61,2615.35 6123.68,2612.52C6123.99,2614.5 6124.2,2616.53 6124.2,2618.6Z" style="fill:none;stroke:black;stroke-opacity:0.12;stroke-width:2.03px;"/>
                            </g>
                            <g transform="matrix(7.57231,0,0,7.57231,-30557.7,-19522)">
                                <path d="M6124.2,2618.6C6124.2,2638.45 6109.51,2654.88 6090.44,2657.72C6090.13,2655.73 6089.93,2653.71 6089.93,2651.64C6089.93,2631.79 6104.61,2615.35 6123.68,2612.52C6123.99,2614.5 6124.2,2616.53 6124.2,2618.6Z" style="fill:none;stroke:black;stroke-opacity:0.12;stroke-width:2.03px;"/>
                            </g>
                            <g transform="matrix(7.57231,0,0,7.57231,-29881,-16193)">
                                <path d="M6124.2,2618.6C6124.2,2638.45 6109.51,2654.88 6090.44,2657.72C6090.13,2655.73 6089.93,2653.71 6089.93,2651.64C6089.93,2631.79 6104.61,2615.35 6123.68,2612.52C6123.99,2614.5 6124.2,2616.53 6124.2,2618.6Z" style="fill:none;stroke:black;stroke-opacity:0.12;stroke-width:2.03px;"/>
                            </g>
                            <g transform="matrix(7.57231,0,0,7.57231,-29881,-16650.7)">
                                <path d="M6124.2,2618.6C6124.2,2638.45 6109.51,2654.88 6090.44,2657.72C6090.13,2655.73 6089.93,2653.71 6089.93,2651.64C6089.93,2631.79 6104.61,2615.35 6123.68,2612.52C6123.99,2614.5 6124.2,2616.53 6124.2,2618.6Z" style="fill:none;stroke:black;stroke-opacity:0.12;stroke-width:2.03px;"/>
                            </g>
                            <g transform="matrix(7.57231,0,0,7.57231,-29881,-17129.3)">
                                <path d="M6124.2,2618.6C6124.2,2638.45 6109.51,2654.88 6090.44,2657.72C6090.13,2655.73 6089.93,2653.71 6089.93,2651.64C6089.93,2631.79 6104.61,2615.35 6123.68,2612.52C6123.99,2614.5 6124.2,2616.53 6124.2,2618.6Z" style="fill:none;stroke:black;stroke-opacity:0.12;stroke-width:2.03px;"/>
                            </g>
                            <g transform="matrix(7.57231,0,0,7.57231,-29881,-17607.8)">
                                <path d="M6124.2,2618.6C6124.2,2638.45 6109.51,2654.88 6090.44,2657.72C6090.13,2655.73 6089.93,2653.71 6089.93,2651.64C6089.93,2631.79 6104.61,2615.35 6123.68,2612.52C6123.99,2614.5 6124.2,2616.53 6124.2,2618.6Z" style="fill:none;stroke:black;stroke-opacity:0.12;stroke-width:2.03px;"/>
                            </g>
                            <g transform="matrix(7.57231,0,0,7.57231,-29881,-18086.4)">
                                <path d="M6124.2,2618.6C6124.2,2638.45 6109.51,2654.88 6090.44,2657.72C6090.13,2655.73 6089.93,2653.71 6089.93,2651.64C6089.93,2631.79 6104.61,2615.35 6123.68,2612.52C6123.99,2614.5 6124.2,2616.53 6124.2,2618.6Z" style="fill:none;stroke:black;stroke-opacity:0.12;stroke-width:2.03px;"/>
                            </g>
                            <g transform="matrix(7.57231,0,0,7.57231,-29881,-18564.9)">
                                <path d="M6124.2,2618.6C6124.2,2638.45 6109.51,2654.88 6090.44,2657.72C6090.13,2655.73 6089.93,2653.71 6089.93,2651.64C6089.93,2631.79 6104.61,2615.35 6123.68,2612.52C6123.99,2614.5 6124.2,2616.53 6124.2,2618.6Z" style="fill:none;stroke:black;stroke-opacity:0.12;stroke-width:2.03px;"/>
                            </g>
                            <g transform="matrix(7.57231,0,0,7.57231,-29881,-19043.5)">
                                <path d="M6124.2,2618.6C6124.2,2638.45 6109.51,2654.88 6090.44,2657.72C6090.13,2655.73 6089.93,2653.71 6089.93,2651.64C6089.93,2631.79 6104.61,2615.35 6123.68,2612.52C6123.99,2614.5 6124.2,2616.53 6124.2,2618.6Z" style="fill:none;stroke:black;stroke-opacity:0.12;stroke-width:2.03px;"/>
                            </g>
                            <g transform="matrix(7.57231,0,0,7.57231,-29881,-19522)">
                                <path d="M6124.2,2618.6C6124.2,2638.45 6109.51,2654.88 6090.44,2657.72C6090.13,2655.73 6089.93,2653.71 6089.93,2651.64C6089.93,2631.79 6104.61,2615.35 6123.68,2612.52C6123.99,2614.5 6124.2,2616.53 6124.2,2618.6Z" style="fill:none;stroke:black;stroke-opacity:0.12;stroke-width:2.03px;"/>
                            </g>
                            <g transform="matrix(7.57231,0,0,7.57231,-29204.2,-16193)">
                                <path d="M6124.2,2618.6C6124.2,2638.45 6109.51,2654.88 6090.44,2657.72C6090.13,2655.73 6089.93,2653.71 6089.93,2651.64C6089.93,2631.79 6104.61,2615.35 6123.68,2612.52C6123.99,2614.5 6124.2,2616.53 6124.2,2618.6Z" style="fill:none;stroke:black;stroke-opacity:0.12;stroke-width:2.03px;"/>
                            </g>
                            <g transform="matrix(7.57231,0,0,7.57231,-29204.2,-16650.7)">
                                <path d="M6124.2,2618.6C6124.2,2638.45 6109.51,2654.88 6090.44,2657.72C6090.13,2655.73 6089.93,2653.71 6089.93,2651.64C6089.93,2631.79 6104.61,2615.35 6123.68,2612.52C6123.99,2614.5 6124.2,2616.53 6124.2,2618.6Z" style="fill:none;stroke:black;stroke-opacity:0.12;stroke-width:2.03px;"/>
                            </g>
                            <g transform="matrix(7.57231,0,0,7.57231,-29204.2,-17129.3)">
                                <path d="M6124.2,2618.6C6124.2,2638.45 6109.51,2654.88 6090.44,2657.72C6090.13,2655.73 6089.93,2653.71 6089.93,2651.64C6089.93,2631.79 6104.61,2615.35 6123.68,2612.52C6123.99,2614.5 6124.2,2616.53 6124.2,2618.6Z" style="fill:none;stroke:black;stroke-opacity:0.12;stroke-width:2.03px;"/>
                            </g>
                            <g transform="matrix(7.57231,0,0,7.57231,-29204.2,-17607.8)">
                                <path d="M6124.2,2618.6C6124.2,2638.45 6109.51,2654.88 6090.44,2657.72C6090.13,2655.73 6089.93,2653.71 6089.93,2651.64C6089.93,2631.79 6104.61,2615.35 6123.68,2612.52C6123.99,2614.5 6124.2,2616.53 6124.2,2618.6Z" style="fill:none;stroke:black;stroke-opacity:0.12;stroke-width:2.03px;"/>
                            </g>
                            <g transform="matrix(7.57231,0,0,7.57231,-29204.2,-18086.4)">
                                <path d="M6124.2,2618.6C6124.2,2638.45 6109.51,2654.88 6090.44,2657.72C6090.13,2655.73 6089.93,2653.71 6089.93,2651.64C6089.93,2631.79 6104.61,2615.35 6123.68,2612.52C6123.99,2614.5 6124.2,2616.53 6124.2,2618.6Z" style="fill:none;stroke:black;stroke-opacity:0.12;stroke-width:2.03px;"/>
                            </g>
                            <g transform="matrix(7.57231,0,0,7.57231,-29204.2,-18564.9)">
                                <path d="M6124.2,2618.6C6124.2,2638.45 6109.51,2654.88 6090.44,2657.72C6090.13,2655.73 6089.93,2653.71 6089.93,2651.64C6089.93,2631.79 6104.61,2615.35 6123.68,2612.52C6123.99,2614.5 6124.2,2616.53 6124.2,2618.6Z" style="fill:none;stroke:black;stroke-opacity:0.12;stroke-width:2.03px;"/>
                            </g>
                            <g transform="matrix(7.57231,0,0,7.57231,-29204.2,-19043.5)">
                                <path d="M6124.2,2618.6C6124.2,2638.45 6109.51,2654.88 6090.44,2657.72C6090.13,2655.73 6089.93,2653.71 6089.93,2651.64C6089.93,2631.79 6104.61,2615.35 6123.68,2612.52C6123.99,2614.5 6124.2,2616.53 6124.2,2618.6Z" style="fill:none;stroke:black;stroke-opacity:0.12;stroke-width:2.03px;"/>
                            </g>
                            <g transform="matrix(7.57231,0,0,7.57231,-29204.2,-19522)">
                                <path d="M6124.2,2618.6C6124.2,2638.45 6109.51,2654.88 6090.44,2657.72C6090.13,2655.73 6089.93,2653.71 6089.93,2651.64C6089.93,2631.79 6104.61,2615.35 6123.68,2612.52C6123.99,2614.5 6124.2,2616.53 6124.2,2618.6Z" style="fill:none;stroke:black;stroke-opacity:0.12;stroke-width:2.03px;"/>
                            </g>
                            <g transform="matrix(7.57231,0,0,7.57231,-28527.4,-16193)">
                                <path d="M6124.2,2618.6C6124.2,2638.45 6109.51,2654.88 6090.44,2657.72C6090.13,2655.73 6089.93,2653.71 6089.93,2651.64C6089.93,2631.79 6104.61,2615.35 6123.68,2612.52C6123.99,2614.5 6124.2,2616.53 6124.2,2618.6Z" style="fill:none;stroke:black;stroke-opacity:0.12;stroke-width:2.03px;"/>
                            </g>
                            <g transform="matrix(7.57231,0,0,7.57231,-28527.4,-16650.7)">
                                <path d="M6124.2,2618.6C6124.2,2638.45 6109.51,2654.88 6090.44,2657.72C6090.13,2655.73 6089.93,2653.71 6089.93,2651.64C6089.93,2631.79 6104.61,2615.35 6123.68,2612.52C6123.99,2614.5 6124.2,2616.53 6124.2,2618.6Z" style="fill:none;stroke:black;stroke-opacity:0.12;stroke-width:2.03px;"/>
                            </g>
                            <g transform="matrix(7.57231,0,0,7.57231,-28527.4,-17129.3)">
                                <path d="M6124.2,2618.6C6124.2,2638.45 6109.51,2654.88 6090.44,2657.72C6090.13,2655.73 6089.93,2653.71 6089.93,2651.64C6089.93,2631.79 6104.61,2615.35 6123.68,2612.52C6123.99,2614.5 6124.2,2616.53 6124.2,2618.6Z" style="fill:none;stroke:black;stroke-opacity:0.12;stroke-width:2.03px;"/>
                            </g>
                            <g transform="matrix(7.57231,0,0,7.57231,-28527.4,-17607.8)">
                                <path d="M6124.2,2618.6C6124.2,2638.45 6109.51,2654.88 6090.44,2657.72C6090.13,2655.73 6089.93,2653.71 6089.93,2651.64C6089.93,2631.79 6104.61,2615.35 6123.68,2612.52C6123.99,2614.5 6124.2,2616.53 6124.2,2618.6Z" style="fill:none;stroke:black;stroke-opacity:0.12;stroke-width:2.03px;"/>
                            </g>
                            <g transform="matrix(7.57231,0,0,7.57231,-28527.4,-18086.4)">
                                <path d="M6124.2,2618.6C6124.2,2638.45 6109.51,2654.88 6090.44,2657.72C6090.13,2655.73 6089.93,2653.71 6089.93,2651.64C6089.93,2631.79 6104.61,2615.35 6123.68,2612.52C6123.99,2614.5 6124.2,2616.53 6124.2,2618.6Z" style="fill:none;stroke:black;stroke-opacity:0.12;stroke-width:2.03px;"/>
                            </g>
                            <g transform="matrix(7.57231,0,0,7.57231,-28527.4,-18564.9)">
                                <path d="M6124.2,2618.6C6124.2,2638.45 6109.51,2654.88 6090.44,2657.72C6090.13,2655.73 6089.93,2653.71 6089.93,2651.64C6089.93,2631.79 6104.61,2615.35 6123.68,2612.52C6123.99,2614.5 6124.2,2616.53 6124.2,2618.6Z" style="fill:none;stroke:black;stroke-opacity:0.12;stroke-width:2.03px;"/>
                            </g>
                            <g transform="matrix(7.57231,0,0,7.57231,-28527.4,-19043.5)">
                                <path d="M6124.2,2618.6C6124.2,2638.45 6109.51,2654.88 6090.44,2657.72C6090.13,2655.73 6089.93,2653.71 6089.93,2651.64C6089.93,2631.79 6104.61,2615.35 6123.68,2612.52C6123.99,2614.5 6124.2,2616.53 6124.2,2618.6Z" style="fill:none;stroke:black;stroke-opacity:0.12;stroke-width:2.03px;"/>
                            </g>
                            <g transform="matrix(7.57231,0,0,7.57231,-28527.4,-19522)">
                                <path d="M6124.2,2618.6C6124.2,2638.45 6109.51,2654.88 6090.44,2657.72C6090.13,2655.73 6089.93,2653.71 6089.93,2651.64C6089.93,2631.79 6104.61,2615.35 6123.68,2612.52C6123.99,2614.5 6124.2,2616.53 6124.2,2618.6Z" style="fill:none;stroke:black;stroke-opacity:0.12;stroke-width:2.03px;"/>
                            </g>
                        </g>
                    </g>
                </g>
            </g>
        </g>
    </g>
</svg>
