<?xml version="1.0" encoding="UTF-8" standalone="no"?>
<!DOCTYPE svg PUBLIC "-//W3C//DTD SVG 1.1//EN" "http://www.w3.org/Graphics/SVG/1.1/DTD/svg11.dtd">
<svg width="100%" height="100%" viewBox="0 0 1280 278" version="1.1" xmlns="http://www.w3.org/2000/svg" xmlns:xlink="http://www.w3.org/1999/xlink" xml:space="preserve" xmlns:serif="http://www.serif.com/" style="fill-rule:evenodd;clip-rule:evenodd;stroke-linejoin:round;stroke-miterlimit:2;">
    <g transform="matrix(1,0,0,1,-24005,-1083)">
        <g id="P17_Logo_Kort_Kleur_RGB" transform="matrix(1,0,0,1,-0.79851,-0.594)">
            <rect x="24005.8" y="1083.59" width="1280" height="277.593" style="fill:none;"/>
            <clipPath id="_clip1">
                <rect x="24005.8" y="1083.59" width="1280" height="277.593"/>
            </clipPath>
            <g clip-path="url(#_clip1)">
                <g transform="matrix(1.34111,0,0,1.34111,-8398.27,-377.073)">
                    <g transform="matrix(0.51747,0,0,0.51747,23751,2021.04)">
                        <path d="M995.714,-1800C1106.1,-1800 1195.71,-1710.38 1195.71,-1600C1195.71,-1489.62 1106.1,-1400 995.714,-1400C885.331,-1400 795.714,-1489.62 795.714,-1600C795.714,-1710.38 885.331,-1800 995.714,-1800ZM1048.77,-1615.4C1074.61,-1612.29 1096.6,-1596.55 1108.35,-1574.52C1120.91,-1585.94 1128.84,-1602.34 1128.84,-1620.6C1128.84,-1652.74 1104.41,-1679.26 1073.15,-1682.61C1073.57,-1679.34 1073.81,-1676.01 1073.81,-1672.63C1073.81,-1650.04 1064.15,-1629.67 1048.77,-1615.4ZM980.657,-1592.7C972.069,-1597.17 962.347,-1599.74 952.012,-1599.74C927.655,-1599.74 906.565,-1585.67 896.304,-1565.26C904.892,-1560.8 914.625,-1558.23 924.955,-1558.23C949.312,-1558.23 970.395,-1572.3 980.657,-1592.7ZM1101.79,-1537.88C1101.79,-1542.14 1101.35,-1546.31 1100.52,-1550.35C1090.23,-1545.33 1078.67,-1542.51 1066.47,-1542.51C1052.75,-1542.51 1039.87,-1546.07 1028.65,-1552.31C1029.59,-1547.47 1030.11,-1542.47 1030.11,-1537.36C1030.11,-1516.6 1021.93,-1497.7 1008.66,-1483.7C1017.75,-1478.52 1028.22,-1475.52 1039.41,-1475.52C1073.81,-1475.52 1101.79,-1503.5 1101.79,-1537.88ZM995.996,-1493.2C1007.34,-1504.5 1014.38,-1520.13 1014.38,-1537.36C1014.38,-1554.88 1007.09,-1570.71 995.422,-1582.05C984.084,-1570.75 977.039,-1555.12 977.039,-1537.88C977.039,-1520.37 984.321,-1504.54 995.996,-1493.2ZM889.638,-1537.36C889.638,-1502.98 917.612,-1475 952.012,-1475C963.453,-1475 974.157,-1478.15 983.39,-1483.56C969.748,-1497.63 961.313,-1516.79 961.313,-1537.88C961.313,-1542.79 961.793,-1547.59 962.663,-1552.24C951.473,-1546.05 938.63,-1542.51 924.955,-1542.51C912.794,-1542.51 901.278,-1545.31 891.002,-1550.29C890.111,-1546.12 889.638,-1541.8 889.638,-1537.36ZM1010.56,-1593.12C1020.74,-1572.49 1041.94,-1558.23 1066.47,-1558.23C1076.87,-1558.23 1086.68,-1560.83 1095.33,-1565.36C1085.13,-1585.99 1063.93,-1600.25 1039.41,-1600.25C1029,-1600.25 1019.2,-1597.65 1010.56,-1593.12ZM862.584,-1620.6C862.584,-1602.25 870.599,-1585.78 883.249,-1574.36C895.126,-1596.33 917.223,-1611.99 943.128,-1614.94C927.466,-1629.23 917.612,-1649.8 917.612,-1672.63C917.612,-1676.01 917.852,-1679.34 918.267,-1682.61C887.011,-1679.26 862.584,-1652.74 862.584,-1620.6ZM1058.08,-1672.63C1058.08,-1675.9 1057.75,-1679.09 1057.27,-1682.22C1027.23,-1677.75 1004.1,-1651.87 1004.1,-1620.6C1004.1,-1617.34 1004.42,-1614.15 1004.91,-1611.02C1034.95,-1615.49 1058.08,-1641.37 1058.08,-1672.63ZM995.706,-1735C970.155,-1735 948.171,-1719.54 938.538,-1697.5C963.911,-1693.03 985.099,-1676.28 995.706,-1653.61C1006.33,-1676.28 1027.51,-1693.02 1052.88,-1697.5C1043.25,-1719.54 1021.26,-1735 995.706,-1735ZM934.154,-1682.22C933.667,-1679.09 933.338,-1675.9 933.338,-1672.63C933.338,-1641.37 956.473,-1615.49 986.51,-1611.02C986.999,-1614.15 987.329,-1617.34 987.329,-1620.6C987.329,-1651.87 964.188,-1677.76 934.154,-1682.22Z" style="fill:rgb(25,72,106);"/>
                    </g>
                    <g transform="matrix(5.92816,0,0,38.9125,3798.51,-37352.3)">
                        <path d="M3481.45,991.069L3481.45,990.404L3486.04,990.404C3486.61,990.404 3487.13,990.386 3487.6,990.351C3488.07,990.316 3488.45,990.264 3488.73,990.194C3489.02,990.124 3489.16,990.037 3489.16,989.934C3489.16,989.83 3489.02,989.743 3488.73,989.671C3488.45,989.6 3488.07,989.546 3487.6,989.511C3487.13,989.476 3486.61,989.459 3486.04,989.459L3481.45,989.459L3481.45,988.794L3487.06,988.794C3488.55,988.794 3489.89,988.839 3491.1,988.931C3492.3,989.023 3493.25,989.153 3493.95,989.321C3494.65,989.49 3495,989.694 3495,989.934C3495,990.167 3494.65,990.37 3493.95,990.541C3493.25,990.713 3492.3,990.844 3491.1,990.934C3489.89,991.024 3488.55,991.069 3487.06,991.069L3481.45,991.069ZM3476.78,992.339L3476.78,988.794L3482.66,988.794L3482.66,992.339L3476.78,992.339Z" style="fill:rgb(25,72,106);fill-rule:nonzero;"/>
                    </g>
                    <g transform="matrix(5.92816,0,0,38.9125,3798.51,-37352.3)">
                        <path d="M3497.01,992.339L3497.01,988.794L3502.88,988.794L3502.88,992.339L3497.01,992.339ZM3501.67,992.339L3501.67,991.569L3512.89,991.569L3512.89,992.339L3501.67,992.339Z" style="fill:rgb(25,72,106);fill-rule:nonzero;"/>
                    </g>
                    <g transform="matrix(5.92816,0,0,38.9125,3798.51,-37352.3)">
                        <path d="M3515.03,992.339L3515.03,988.794L3520.91,988.794L3520.91,992.339L3515.03,992.339ZM3519.69,992.339L3519.69,991.584L3532.3,991.584L3532.3,992.339L3519.69,992.339ZM3519.69,990.899L3519.69,990.164L3531.11,990.164L3531.11,990.899L3519.69,990.899ZM3519.69,989.549L3519.69,988.794L3532.1,988.794L3532.1,989.549L3519.69,989.549Z" style="fill:rgb(25,72,106);fill-rule:nonzero;"/>
                    </g>
                    <g transform="matrix(5.92816,0,0,38.9125,3798.51,-37352.3)">
                        <rect x="3535.02" y="988.794" width="5.876" height="3.546" style="fill:rgb(25,72,106);fill-rule:nonzero;"/>
                    </g>
                    <g transform="matrix(5.92816,0,0,38.9125,3798.51,-37352.3)">
                        <path d="M3544.44,992.339L3544.44,988.794L3548.55,988.794L3550.32,989.519L3550.32,992.339L3544.44,992.339ZM3560.49,992.339L3546.9,989.709L3548.55,988.794L3562.17,991.424L3560.49,992.339ZM3560.49,992.339L3558.99,991.594L3558.99,988.794L3564.86,988.794L3564.86,992.339L3560.49,992.339Z" style="fill:rgb(25,72,106);fill-rule:nonzero;"/>
                    </g>
                    <g transform="matrix(5.92816,0,0,38.9125,3803.18,-37352.3)">
                        <path d="M3571.3,992.339L3571.3,988.794L3577.11,988.794L3577.11,992.339L3571.3,992.339ZM3567.23,989.539L3567.23,988.794L3576.78,988.794L3576.78,989.539L3567.23,989.539Z" style="fill:rgb(25,72,106);fill-rule:nonzero;"/>
                    </g>
                    <g transform="matrix(5.92816,0,0,38.9125,3803.18,-37352.3)">
                        <path d="M3582.1,992.339L3589.71,989.284L3595.39,989.284L3588.1,992.339L3582.1,992.339ZM3579.08,989.539L3579.08,988.794L3595.39,988.794L3595.39,989.284L3593.62,989.539L3579.08,989.539Z" style="fill:rgb(25,72,106);fill-rule:nonzero;"/>
                    </g>
                </g>
            </g>
        </g>
    </g>
</svg>
