<?xml version="1.0" encoding="UTF-8" standalone="no"?>
<!DOCTYPE svg PUBLIC "-//W3C//DTD SVG 1.1//EN" "http://www.w3.org/Graphics/SVG/1.1/DTD/svg11.dtd">
<svg width="100%" height="100%" viewBox="0 0 1280 1281" version="1.1" xmlns="http://www.w3.org/2000/svg" xmlns:xlink="http://www.w3.org/1999/xlink" xml:space="preserve" xmlns:serif="http://www.serif.com/" style="fill-rule:evenodd;clip-rule:evenodd;stroke-linejoin:round;stroke-miterlimit:2;">
    <g transform="matrix(1,0,0,1,-10954,-1375)">
        <g id="P17_MerkMiddelen_Patroon2_Wit_RGB" transform="matrix(1,0,0,1,5174,-0.213948)">
            <rect x="5780" y="1375.82" width="1280" height="1280" style="fill:none;"/>
            <clipPath id="_clip1">
                <rect x="5780" y="1375.82" width="1280" height="1280"/>
            </clipPath>
            <g clip-path="url(#_clip1)">
                <g transform="matrix(0.492308,0,0,0.492308,6173.85,5216.64)">
                    <rect x="-800" y="-7800" width="2600" height="2600" style="fill:white;"/>
                    <clipPath id="_clip2">
                        <rect x="-800" y="-7800" width="2600" height="2600"/>
                    </clipPath>
                    <g clip-path="url(#_clip2)">
                        <g transform="matrix(1.79202,0.480171,-0.480171,1.79202,-6308.15,17909.4)">
                            <g>
                                <g transform="matrix(21.5586,4.6195e-19,-4.6195e-19,21.5586,-93335.8,-43697)">
                                    <path d="M4383.45,1357.34C4335.69,1357.34 4296.92,1396.12 4296.92,1443.88C4296.92,1491.63 4335.69,1530.41 4383.45,1530.41C4431.21,1530.41 4469.98,1491.63 4469.98,1443.88C4469.98,1396.12 4431.21,1357.34 4383.45,1357.34L4383.45,1357.34ZM4383.45,1357.44C4431.16,1357.44 4469.89,1396.17 4469.89,1443.88C4469.89,1491.58 4431.16,1530.32 4383.45,1530.32C4335.74,1530.32 4297.01,1491.58 4297.01,1443.88C4297.01,1396.17 4335.74,1357.44 4383.45,1357.44Z" style="fill:rgb(219,217,216);"/>
                                </g>
                                <g transform="matrix(21.5586,4.6195e-19,-4.6195e-19,21.5586,-94210.8,-43178.6)">
                                    <path d="M4383.45,1357.34C4335.69,1357.34 4296.92,1396.12 4296.92,1443.88C4296.92,1491.63 4335.69,1530.41 4383.45,1530.41C4431.21,1530.41 4469.98,1491.63 4469.98,1443.88C4469.98,1396.12 4431.21,1357.34 4383.45,1357.34L4383.45,1357.34ZM4383.45,1357.44C4431.16,1357.44 4469.89,1396.17 4469.89,1443.88C4469.89,1491.58 4431.16,1530.32 4383.45,1530.32C4335.74,1530.32 4297.01,1491.58 4297.01,1443.88C4297.01,1396.17 4335.74,1357.44 4383.45,1357.44Z" style="fill:rgb(219,217,216);"/>
                                </g>
                                <g transform="matrix(21.5586,4.6195e-19,-4.6195e-19,21.5586,-95752.7,-43452.8)">
                                    <path d="M4383.45,1357.34C4335.69,1357.34 4296.92,1396.12 4296.92,1443.88C4296.92,1491.63 4335.69,1530.41 4383.45,1530.41C4431.21,1530.41 4469.98,1491.63 4469.98,1443.88C4469.98,1396.12 4431.21,1357.34 4383.45,1357.34L4383.45,1357.34ZM4383.45,1357.44C4431.16,1357.44 4469.89,1396.17 4469.89,1443.88C4469.89,1491.58 4431.16,1530.32 4383.45,1530.32C4335.74,1530.32 4297.01,1491.58 4297.01,1443.88C4297.01,1396.17 4335.74,1357.44 4383.45,1357.44Z" style="fill:rgb(219,217,216);"/>
                                </g>
                                <g transform="matrix(21.5586,4.6195e-19,-4.6195e-19,21.5586,-93324,-43118.8)">
                                    <path d="M4383.45,1357.34C4335.69,1357.34 4296.92,1396.12 4296.92,1443.88C4296.92,1491.63 4335.69,1530.41 4383.45,1530.41C4431.21,1530.41 4469.98,1491.63 4469.98,1443.88C4469.98,1396.12 4431.21,1357.34 4383.45,1357.34L4383.45,1357.34ZM4383.45,1357.44C4431.16,1357.44 4469.89,1396.17 4469.89,1443.88C4469.89,1491.58 4431.16,1530.32 4383.45,1530.32C4335.74,1530.32 4297.01,1491.58 4297.01,1443.88C4297.01,1396.17 4335.74,1357.44 4383.45,1357.44Z" style="fill:rgb(219,217,216);"/>
                                </g>
                                <g transform="matrix(21.5586,4.6195e-19,-4.6195e-19,21.5586,-92511,-44354.6)">
                                    <path d="M4383.45,1357.34C4335.69,1357.34 4296.92,1396.12 4296.92,1443.88C4296.92,1491.63 4335.69,1530.41 4383.45,1530.41C4431.21,1530.41 4469.98,1491.63 4469.98,1443.88C4469.98,1396.12 4431.21,1357.34 4383.45,1357.34L4383.45,1357.34ZM4383.45,1357.44C4431.16,1357.44 4469.89,1396.17 4469.89,1443.88C4469.89,1491.58 4431.16,1530.32 4383.45,1530.32C4335.74,1530.32 4297.01,1491.58 4297.01,1443.88C4297.01,1396.17 4335.74,1357.44 4383.45,1357.44Z" style="fill:rgb(219,217,216);"/>
                                </g>
                            </g>
                            <g>
                                <g transform="matrix(1.21658,0,0,1.21658,40.174,3001.74)">
                                    <circle cx="-185.496" cy="-13854.6" r="8.944" style="fill:rgb(219,217,216);"/>
                                </g>
                                <g transform="matrix(1.21658,0,0,1.21658,379.47,3306.62)">
                                    <circle cx="-185.496" cy="-13854.6" r="8.944" style="fill:rgb(219,217,216);"/>
                                </g>
                                <g transform="matrix(1.21658,0,0,1.21658,482.587,2940.19)">
                                    <circle cx="-185.496" cy="-13854.6" r="8.944" style="fill:rgb(219,217,216);"/>
                                </g>
                                <g transform="matrix(1.21658,0,0,1.21658,691.369,2557.5)">
                                    <circle cx="-185.496" cy="-13854.6" r="8.944" style="fill:rgb(219,217,216);"/>
                                </g>
                            </g>
                        </g>
                    </g>
                </g>
            </g>
        </g>
    </g>
</svg>
