<?xml version="1.0" encoding="UTF-8" standalone="no"?>
<!DOCTYPE svg PUBLIC "-//W3C//DTD SVG 1.1//EN" "http://www.w3.org/Graphics/SVG/1.1/DTD/svg11.dtd">
<svg width="100%" height="100%" viewBox="0 0 1280 1281" version="1.1" xmlns="http://www.w3.org/2000/svg" xmlns:xlink="http://www.w3.org/1999/xlink" xml:space="preserve" xmlns:serif="http://www.serif.com/" style="fill-rule:evenodd;clip-rule:evenodd;stroke-linecap:square;stroke-linejoin:round;stroke-miterlimit:1.5;">
    <g transform="matrix(1,0,0,1,-10954,-2750)">
        <g id="P17_MerkMiddelen_Patroon1_Wit_RGB" transform="matrix(1,0,0,1,5174,-0.159953)">
            <rect x="5780" y="2750.76" width="1280" height="1280" style="fill:none;"/>
            <clipPath id="_clip1">
                <rect x="5780" y="2750.76" width="1280" height="1280"/>
            </clipPath>
            <g clip-path="url(#_clip1)">
                <g transform="matrix(0.492308,0,0,0.492308,6173.85,6591.53)">
                    <rect x="-800" y="-7800" width="2600" height="2600" style="fill:white;"/>
                    <clipPath id="_clip2">
                        <rect x="-800" y="-7800" width="2600" height="2600"/>
                    </clipPath>
                    <g clip-path="url(#_clip2)">
                        <g transform="matrix(5.08632,0,0,5.08632,-25651.8,5661.45)">
                            <g>
                                <g transform="matrix(2.52991,5.42101e-20,-5.42101e-20,2.52991,-5952.78,-5871.56)">
                                    <path d="M4383.45,1356.45C4335.2,1356.45 4296.02,1395.62 4296.02,1443.88C4296.02,1492.13 4335.2,1531.31 4383.45,1531.31C4431.71,1531.31 4470.88,1492.13 4470.88,1443.88C4470.88,1395.62 4431.71,1356.45 4383.45,1356.45L4383.45,1356.45ZM4383.45,1357.44C4431.16,1357.44 4469.89,1396.17 4469.89,1443.88C4469.89,1491.58 4431.16,1530.32 4383.45,1530.32C4335.74,1530.32 4297.01,1491.58 4297.01,1443.88C4297.01,1396.17 4335.74,1357.44 4383.45,1357.44Z" style="fill:rgb(219,217,216);"/>
                                </g>
                                <g transform="matrix(2.52991,5.42101e-20,-5.42101e-20,2.52991,-6033.39,-6174.52)">
                                    <path d="M4383.45,1356.45C4335.2,1356.45 4296.02,1395.62 4296.02,1443.88C4296.02,1492.13 4335.2,1531.31 4383.45,1531.31C4431.71,1531.31 4470.88,1492.13 4470.88,1443.88C4470.88,1395.62 4431.71,1356.45 4383.45,1356.45L4383.45,1356.45ZM4383.45,1357.44C4431.16,1357.44 4469.89,1396.17 4469.89,1443.88C4469.89,1491.58 4431.16,1530.32 4383.45,1530.32C4335.74,1530.32 4297.01,1491.58 4297.01,1443.88C4297.01,1396.17 4335.74,1357.44 4383.45,1357.44Z" style="fill:rgb(219,217,216);"/>
                                </g>
                                <g transform="matrix(2.52991,5.42101e-20,-5.42101e-20,2.52991,-5734.76,-6083.59)">
                                    <path d="M4383.45,1356.45C4335.2,1356.45 4296.02,1395.62 4296.02,1443.88C4296.02,1492.13 4335.2,1531.31 4383.45,1531.31C4431.71,1531.31 4470.88,1492.13 4470.88,1443.88C4470.88,1395.62 4431.71,1356.45 4383.45,1356.45L4383.45,1356.45ZM4383.45,1357.44C4431.16,1357.44 4469.89,1396.17 4469.89,1443.88C4469.89,1491.58 4431.16,1530.32 4383.45,1530.32C4335.74,1530.32 4297.01,1491.58 4297.01,1443.88C4297.01,1396.17 4335.74,1357.44 4383.45,1357.44Z" style="fill:rgb(219,217,216);"/>
                                </g>
                            </g>
                            <g>
                                <circle cx="4947.5" cy="-2330.5" r="8.5" style="fill:white;stroke:rgb(219,217,216);stroke-width:2.02px;"/>
                                <g transform="matrix(1,0,0,1,188,-108.5)">
                                    <circle cx="4947.5" cy="-2330.5" r="8.5" style="fill:white;stroke:rgb(219,217,216);stroke-width:2.02px;"/>
                                </g>
                                <g transform="matrix(1,0,0,1,298.5,-79.5)">
                                    <circle cx="4947.5" cy="-2330.5" r="8.5" style="fill:white;stroke:rgb(219,217,216);stroke-width:2.02px;"/>
                                </g>
                                <g transform="matrix(1,0,0,1,213,2)">
                                    <circle cx="4947.5" cy="-2330.5" r="8.5" style="fill:white;stroke:rgb(219,217,216);stroke-width:2.02px;"/>
                                </g>
                                <g transform="matrix(1,0,0,1,409.5,120)">
                                    <circle cx="4947.5" cy="-2330.5" r="8.5" style="fill:white;stroke:rgb(219,217,216);stroke-width:2.02px;"/>
                                </g>
                                <g transform="matrix(1,0,0,1,303,-294.5)">
                                    <circle cx="4947.5" cy="-2330.5" r="8.5" style="fill:white;stroke:rgb(219,217,216);stroke-width:2.02px;"/>
                                </g>
                            </g>
                        </g>
                    </g>
                </g>
            </g>
        </g>
    </g>
</svg>
